<svg xmlns="http://www.w3.org/2000/svg" xmlns:xlink="http://www.w3.org/1999/xlink" width="60" height="60" viewBox="0 0 60 60">
  <defs>
    <filter id="Rectangle_299" x="-1" y="4" width="62" height="62" filterUnits="userSpaceOnUse">
      <feOffset dy="5" input="SourceAlpha"/>
      <feGaussianBlur stdDeviation="5" result="blur"/>
      <feFlood flood-color="#0e1b8b" flood-opacity="0.251"/>
      <feComposite operator="in" in2="blur"/>
      <feComposite in="SourceGraphic"/>
    </filter>
    <clipPath id="clip-behance">
      <rect width="60" height="60"/>
    </clipPath>
  </defs>
  <g id="behance" clip-path="url(#clip-behance)">
    <g id="Group_549" data-name="Group 549" transform="translate(14 14)">
      <g id="Group_546" data-name="Group 546">
        <g transform="matrix(1, 0, 0, 1, -14, -14)" filter="url(#Rectangle_299)">
          <rect id="Rectangle_299-2" data-name="Rectangle 299" width="32" height="32" rx="16" transform="translate(14 14)" fill="#fff"/>
        </g>
        <g id="behance-2" data-name="behance" transform="translate(7.384 10.583)">
          <path id="behance-3" data-name="behance" d="M355.1,683.6a6.778,6.778,0,0,1,1.413.137,3.035,3.035,0,0,1,1.093.448,2.091,2.091,0,0,1,.707.828,2.9,2.9,0,0,1,.251,1.276,2.378,2.378,0,0,1-.372,1.367,2.7,2.7,0,0,1-1.1.9,2.61,2.61,0,0,1,1.5,1.01,3.316,3.316,0,0,1,.175,3.16,2.757,2.757,0,0,1-.859.979,3.794,3.794,0,0,1-1.23.562,5.555,5.555,0,0,1-1.42.182H350V683.6Zm-.3,4.389a1.72,1.72,0,0,0,1.048-.3,1.144,1.144,0,0,0,.41-.987,1.261,1.261,0,0,0-.137-.622,1.008,1.008,0,0,0-.365-.38,1.543,1.543,0,0,0-.524-.19,3.485,3.485,0,0,0-.616-.053h-2.231v2.537Zm.137,4.6a3.19,3.19,0,0,0,.668-.068,1.649,1.649,0,0,0,.562-.228,1.156,1.156,0,0,0,.388-.433,1.5,1.5,0,0,0,.145-.7,1.4,1.4,0,0,0-.471-1.192,2.008,2.008,0,0,0-1.245-.357h-2.6v2.977Zm7.147-.228a2.212,2.212,0,0,0,2.522.145,1.352,1.352,0,0,0,.577-.691h1.9a3.6,3.6,0,0,1-1.4,2.02,4.115,4.115,0,0,1-2.278.608,4.487,4.487,0,0,1-1.671-.3,3.475,3.475,0,0,1-1.261-.843,3.779,3.779,0,0,1-.8-1.306,4.8,4.8,0,0,1-.28-1.67,4.579,4.579,0,0,1,.288-1.64,3.8,3.8,0,0,1,2.089-2.187,4.071,4.071,0,0,1,1.633-.319,3.735,3.735,0,0,1,1.747.388,3.488,3.488,0,0,1,1.222,1.041,4.278,4.278,0,0,1,.691,1.489,5.556,5.556,0,0,1,.152,1.747h-5.665a2.173,2.173,0,0,0,.53,1.515Zm2.438-4.131a1.516,1.516,0,0,0-1.177-.425,1.878,1.878,0,0,0-.858.174,1.636,1.636,0,0,0-.547.433,1.579,1.579,0,0,0-.288.547,2.455,2.455,0,0,0-.1.516h3.509A2.509,2.509,0,0,0,364.522,688.232Zm-3.338-4.082h4.384v1.216h-4.384Z" transform="translate(-350 -683.6)" fill="#1769ff"/>
        </g>
      </g>
    </g>
  </g>
</svg>
