<svg xmlns="http://www.w3.org/2000/svg" xmlns:xlink="http://www.w3.org/1999/xlink" width="933.377" height="776.968" viewBox="0 0 933.377 776.968">
  <defs>
    <filter id="Rectangle_269" x="0" y="0" width="933.377" height="776.968" filterUnits="userSpaceOnUse">
      <feOffset dy="10" input="SourceAlpha"/>
      <feGaussianBlur stdDeviation="49.5" result="blur"/>
      <feFlood flood-color="#353a64" flood-opacity="0.349"/>
      <feComposite operator="in" in2="blur"/>
      <feComposite in="SourceGraphic"/>
    </filter>
  </defs>
  <g id="brnd" transform="translate(2536.5 -2038.532)">
    <g transform="matrix(1, 0, 0, 1, -2536.5, 2038.53)" filter="url(#Rectangle_269)">
      <rect id="Rectangle_269-2" data-name="Rectangle 269" width="636.377" height="479.968" rx="46" transform="translate(148.5 138.5)" fill="#fff"/>
    </g>
    <path id="Path_1379" data-name="Path 1379" d="M635.711,37.615A45.123,45.123,0,0,0,630.6,23.361,45.633,45.633,0,0,0,590.8,0H45.616A45.65,45.65,0,0,0,5.8,23.361,45.55,45.55,0,0,0,0,45.613V434.355a45.662,45.662,0,0,0,45.616,45.613H590.8a45.636,45.636,0,0,0,45.616-45.613V45.613a45.455,45.455,0,0,0-.707-8Zm-1.4,396.74a43.517,43.517,0,0,1-37.575,43.1,43.965,43.965,0,0,1-5.93.4H110.415A108.306,108.306,0,0,1,2.11,369.549V45.613a43.447,43.447,0,0,1,.739-8A43.013,43.013,0,0,1,8.23,23.361,43.478,43.478,0,0,1,45.616,2.11H590.8a43.478,43.478,0,0,1,37.385,21.25,43.438,43.438,0,0,1,6.12,22.253Z" transform="translate(-2387.417 2177)" fill="#041433"/>
    <g id="Group_526" data-name="Group 526" transform="translate(-2484.09 2257.026)">
      <g id="Group_524" data-name="Group 524" transform="translate(157.409 41.365)">
        <path id="Path_1350" data-name="Path 1350" d="M738.875,383.772H674.02a3.46,3.46,0,0,0-3.455,3.464V489.689H742.34V387.237a3.462,3.462,0,0,0-3.464-3.465Zm-32.21,58.213a7.694,7.694,0,0,1-7.658-7.658V422.51a7.658,7.658,0,1,1,15.317,0v11.817a7.694,7.694,0,0,1-7.658,7.658Z" transform="translate(-560.052 -223.882)" fill="#041433"/>
        <path id="Path_1362" data-name="Path 1362" d="M846.163,223.726H568.929a9,9,0,0,0-8.985,8.985V419.79a8.994,8.994,0,0,0,8.985,8.985H846.163a8.994,8.994,0,0,0,8.985-8.985V232.711a9,9,0,0,0-8.985-8.985Z" transform="translate(-559.944 -223.726)" fill="#041433"/>
        <path id="Path_1363" data-name="Path 1363" d="M843.855,230.223h-272.6a4.816,4.816,0,0,0-4.805,4.815V417.48a4.814,4.814,0,0,0,4.805,4.805h272.6a4.814,4.814,0,0,0,4.805-4.805V235.038a4.816,4.816,0,0,0-4.8-4.815Z" transform="translate(-559.95 -223.732)" fill="#fff"/>
        <path id="Path_1371" data-name="Path 1371" d="M848.8,235.038V417.48a4.814,4.814,0,0,1-4.805,4.805H747.869a117.961,117.961,0,0,1-25.735-34.626q-.629-1.259-1.2-2.547a116.915,116.915,0,0,1-10.39-39.991c-.07-.849-.13-1.7-.17-2.558-.13-2.2-.19-4.426-.19-6.663a117.421,117.421,0,0,1,8.282-43.468c.33-.859.679-1.708,1.039-2.557A118.283,118.283,0,0,1,775.8,230.223h68.193a4.816,4.816,0,0,1,4.805,4.815Z" transform="translate(-560.091 -223.732)" fill="#f1f1ff"/>
        <path id="Path_1372" data-name="Path 1372" d="M830.159,255.381H575.085a1.014,1.014,0,1,1,0-2.029H830.159a1.014,1.014,0,1,1,0,2.029Z" transform="translate(-559.958 -223.755)" fill="#e3e4fe"/>
        <ellipse id="Ellipse_77" data-name="Ellipse 77" cx="5.945" cy="6.077" rx="5.945" ry="6.077" transform="translate(26.546 12.264)" fill="#f26459"/>
        <ellipse id="Ellipse_78" data-name="Ellipse 78" cx="5.945" cy="6.077" rx="5.945" ry="6.077" transform="translate(47.082 12.264)" fill="#f8bd12"/>
        <ellipse id="Ellipse_79" data-name="Ellipse 79" cx="5.945" cy="6.077" rx="5.945" ry="6.077" transform="translate(67.618 12.264)" fill="#1cc33c"/>
        <path id="Path_1373" data-name="Path 1373" d="M818.018,237.51H803.43a1.1,1.1,0,1,0,0,2.209h14.588a1.1,1.1,0,1,0,0-2.209Z" transform="translate(-560.181 -223.739)" fill="#041433"/>
        <path id="Path_1374" data-name="Path 1374" d="M818.018,241.66H803.43a1.1,1.1,0,1,0,0,2.209h14.588a1.1,1.1,0,1,0,0-2.209Z" transform="translate(-560.181 -223.744)" fill="#041433"/>
        <path id="Path_1375" data-name="Path 1375" d="M818.018,245.8H803.43a1.1,1.1,0,1,0,0,2.209h14.588a1.1,1.1,0,1,0,0-2.209Z" transform="translate(-560.181 -223.748)" fill="#041433"/>
        <rect id="Rectangle_266" data-name="Rectangle 266" width="40.542" height="8.669" rx="4.335" transform="translate(55.121 90.887)" fill="#8054e7"/>
        <rect id="Rectangle_267" data-name="Rectangle 267" width="81.722" height="8.669" rx="4.335" transform="translate(34.532 108.226)" fill="#e3e4fe"/>
        <rect id="Rectangle_268" data-name="Rectangle 268" width="81.722" height="8.669" rx="4.335" transform="translate(34.532 125.564)" fill="#e3e4fe"/>
        <path id="Path_1376" data-name="Path 1376" d="M601.152,411.974a29.785,29.785,0,0,1-1.878,10.46H571.251a4.814,4.814,0,0,1-4.805-4.805V382.383a29.6,29.6,0,0,1,4.735-.38,29.969,29.969,0,0,1,29.971,29.973Z" transform="translate(-559.95 -223.881)" fill="#8054e7"/>
        <path id="Path_1378" data-name="Path 1378" d="M814.575,403.432a2.67,2.67,0,0,1-1.935-4.627l.183-.727-.073-.175a7.169,7.169,0,0,0-13.224.049c-2.163,5.209-4.917,10.428-5.595,15.936a21.2,21.2,0,0,0,.372,7.294,85.031,85.031,0,0,1-7.735-35.317,82.092,82.092,0,0,1,.509-9.156q.422-3.738,1.17-7.424a86.018,86.018,0,0,1,17.058-36.456,22.892,22.892,0,0,0,9.521-9.878,17.459,17.459,0,0,0,1.588-4.772c-.464.061-.935.1-1.4.129l-.441.023-.054,0a2.645,2.645,0,0,1-2.172-4.309l.6-.738c.3-.38.615-.752.919-1.132a1.319,1.319,0,0,0,.1-.114c.35-.433.7-.859,1.049-1.292a7.649,7.649,0,0,0-2.507-2.424c-3.5-2.052-8.335-.631-10.866,2.538s-3.016,7.613-2.135,11.572a30.654,30.654,0,0,0,4.24,9.452c-.19.243-.388.479-.578.722a86.574,86.574,0,0,0-9.036,14.315,35.99,35.99,0,0,0-2.148-16.716c-2.057-4.961-5.911-9.14-9.306-13.429-4.077-5.152-12.439-2.9-13.157,3.627q-.01.095-.02.19.756.427,1.481.906a3.621,3.621,0,0,1-1.46,6.59l-.074.011a36.032,36.032,0,0,0,.95,5.387,37.1,37.1,0,0,0,18.471,23.251c.3.152.585.3.881.448A88.365,88.365,0,0,0,785,379.574a83.816,83.816,0,0,0,.061,13.532l-.023-.16a22.146,22.146,0,0,0-7.56-12.788c-5.818-4.779-14.038-6.539-20.315-10.381a4.156,4.156,0,0,0-6.366,4.043q.013.084.026.168a24.318,24.318,0,0,1,2.728,1.314q.756.427,1.481.906a3.621,3.621,0,0,1-1.46,6.59l-.074.011-.152.023a36.061,36.061,0,0,0,6.633,10.387A37.131,37.131,0,0,0,786.9,405.035h.008a88.336,88.336,0,0,0,5.934,17.324h21.2c.076-.236.144-.479.213-.714a24.086,24.086,0,0,1-5.866-.349c1.573-1.93,3.146-3.875,4.719-5.805a1.31,1.31,0,0,0,.1-.114c.8-.988,1.6-1.968,2.4-2.956h0a35.282,35.282,0,0,0-1.034-8.988ZM790.3,355.677l.011-.015-.011.03Zm-4.7,42.33-.182-.41c.008-.3.008-.593,0-.9,0-.084-.015-.167-.015-.251.068.524.129,1.049.205,1.573Z" transform="translate(-560.13 -223.808)" fill="#e3e4fe"/>
      </g>
    </g>
    <g id="Group_537" data-name="Group 537" transform="translate(-2450.03 2344.028)">
      <g id="Group_494" data-name="Group 494" transform="translate(0 118.558)">
        <g id="Group_492" data-name="Group 492" transform="translate(49.543 158.153)">
          <path id="Path_1263" data-name="Path 1263" d="M617.414,553.791l5.98.123,3.333-23.518-8.825-.183Z" transform="translate(-614.337 -530.214)" fill="#ffb6b6"/>
          <path id="Path_1264" data-name="Path 1264" d="M622.09,580.3a2.677,2.677,0,0,1-2.728,2.619l-11.888-.247-1.958-4.278-.888,4.217-4.486-.09,1.573-15.086,1.563-.058,6.377-.253,2.057-.078-.089,4.279,9.359,6.754a2.673,2.673,0,0,1,1.107,2.222Z" transform="translate(-600.142 -546.663)" fill="#2f2e41"/>
        </g>
        <g id="Group_493" data-name="Group 493" transform="translate(9.303 158.153)">
          <path id="Path_1265" data-name="Path 1265" d="M690.125,553.791l5.98.123,3.333-23.518-8.825-.183Z" transform="translate(-687.048 -530.214)" fill="#ffb6b6"/>
          <path id="Path_1266" data-name="Path 1266" d="M694.8,580.3a2.677,2.677,0,0,1-2.728,2.619l-11.888-.247-1.958-4.278-.888,4.217-4.486-.09,1.573-15.086,1.563-.058,6.377-.253,2.057-.078-.089,4.279,9.359,6.754A2.673,2.673,0,0,1,694.8,580.3Z" transform="translate(-672.854 -546.663)" fill="#2f2e41"/>
        </g>
        <path id="Path_1267" data-name="Path 1267" d="M645.041,245.358l-32.924-.915,1.829,2.744-4.166,4.115s-15.04,20.577-10.467,39.326,2,129.588,2,129.588l26.81-2.922-2.972-111.8L647.1,347.56l-6.382,68.2,22.844-.067,7.316-73.621-25.836-96.714Z" transform="translate(-598.448 -244.443)" fill="#2f2e41"/>
      </g>
      <g id="Group_495" data-name="Group 495" transform="translate(7.033 48.227)">
        <path id="Path_1270" data-name="Path 1270" d="M561.433,176.28,543.7,174.236,541.12,184.2l18.825,1.494a5.975,5.975,0,1,0,1.489-9.417Z" transform="translate(-473.096 -142.759)" fill="#ffb6b6"/>
        <path id="Path_1271" data-name="Path 1271" d="M573.244,127.892l6.94-10.532a30.446,30.446,0,0,1,3.2,2.9l1.439.991,4.649,4.156,13.161,11.749,4.378,3.913,4.887.858,10.786,1.9,16.335,4.4,12.028.779c.006.243.006.609.006,1.063a69.631,69.631,0,0,1-.515,9.751,3.093,3.093,0,0,1-.648,1.743c-.089.061-9.3-2.816-9.765-2.821-3.747-.006-10.009,1.023-22.644-.621-7.5-.985-14.112-1.882-16.891-2.264l-.061-.011-2.009-.974-22.054-10.681-6.658-3.226a50.725,50.725,0,0,1,3.431-13.066Z" transform="translate(-569.813 -117.36)" fill="#6aac45"/>
      </g>
      <path id="Path_1286" data-name="Path 1286" d="M640.3,198.761c.685,5.212,36.167-7.128,40.4-9.408,7.919-4.256-.366.109-.366.109l.92-26.12.96-15.564s.537-4.134,1.66-9.408c.255-1.184.526-2.557.7-4.012.487-4.2.116-9.082-4.018-12.037l-14.417-21.5-7.1-.415-6.182,9.381-6.94,10.532a50.96,50.96,0,0,0-2.6,30.466l4.344,12.181a2.964,2.964,0,0,1-1.362,3.215c-3.872,2.341,3.966,8.779-.83,16.752,0,0,.448,3.664-1.688,3.985S640.008,196.566,640.3,198.761Z" transform="translate(-635.446 -61.563)" fill="#6aac45"/>
      <g id="Group_503" data-name="Group 503" transform="translate(20.861 55.236)">
        <path id="Path_1287" data-name="Path 1287" d="M608.356,289.119,597.827,274.7l-9.073,4.865,11.673,14.844a5.975,5.975,0,1,0,7.928-5.295Z" transform="translate(-555.434 -194.635)" fill="#ffb6b6"/>
        <path id="Path_1288" data-name="Path 1288" d="M610.666,133.578a20.147,20.147,0,0,1,8.31-3.492c4.224-.737,6.594,5.342,7.525,11.27a34.685,34.685,0,0,1,.407,7.448l.249,1.735.146,8.98.344,20.762,10.575,15.656,4.427,10.515,9.048,11.565c-.177.17-.447.418-.779.729a69.988,69.988,0,0,1-7.511,6.234,3.142,3.142,0,0,1-1.717.7c-.1-.023-6.475-6.159-6.789-6.5-2.113-2.3-2.529-5.387-8.918-14.36-5.819-8.166-11.494-16.287-13.544-19.225l-.038-.053-9.212-30.381-.838-2.754a20.249,20.249,0,0,1,8.315-18.829Z" transform="translate(-602.21 -130.025)" fill="#6aac45"/>
      </g>
      <path id="Path_1289" data-name="Path 1289" d="M666.06,137.251l.05-.021c.142.012.283.02.421.021Z" transform="translate(-631.519 -78.006)" fill="#2f2e41"/>
      <ellipse id="Ellipse_65" data-name="Ellipse 65" cx="16.098" cy="16.098" rx="16.098" ry="16.098" transform="translate(14.311 3.191)" fill="#ffb6b6"/>
      <path id="Path_1290" data-name="Path 1290" d="M679.805,45.032c1.087-7.8-2.082-10.192-7.039-10.9-9.809-5.1-12.055-3.816-15.165-3.263l-1.143-.246c-3.507-.755-4.779-.433-7.9.746a18.032,18.032,0,0,0-11.379,15.784c-.329,4.835,1.186,5.588-1.617,9.515a5.6,5.6,0,0,0,3.384,8.726l3.663,5.537a25.844,25.844,0,0,0,2.413-3.789,12.891,12.891,0,0,1,.188,4.349,25.935,25.935,0,0,0,11.85,2.55,4.678,4.678,0,0,0,1.207-3.049,21.693,21.693,0,0,1,.571,3.431c2.656-1.71,4.852-1.208,6.6,1.421,4.428-3.67,4.775-12.078-.489-14.185-4.453-1.782,2.571-14.256,7.36-14.511.031,0,1.306,4.821,1.352,4.731.676-1.352.367-2.093,1.175-3.573a12.217,12.217,0,0,1,.25,3.63,20.211,20.211,0,0,0,3.463-1.1,6.313,6.313,0,0,0,1.249-5.807Z" transform="translate(-627.6 -30.218)" fill="#2f2e41"/>
    </g>
  </g>
</svg>
