<svg xmlns="http://www.w3.org/2000/svg" xmlns:xlink="http://www.w3.org/1999/xlink" width="250" height="250" viewBox="0 0 250 250">
  <defs>
    <clipPath id="clip-favicon">
      <rect width="250" height="250"/>
    </clipPath>
  </defs>
  <g id="favicon" clip-path="url(#clip-favicon)">
    <path id="Union_1" data-name="Union 1" d="M125.006,158.706A34.052,34.052,0,0,1,99.65,147.4c-6.159-6.831-9.588-16.111-9.972-26.932-5.062-3.969-8.421-10.007-9.633-17.479a3.929,3.929,0,1,1,7.74-1.255c1.127,6.944,4.642,12.088,9.895,14.48a16.6,16.6,0,0,0,21.059-6.47,17.969,17.969,0,0,0,2.354-9.26q0-.46-.022-.921c-10.2-2.439-17.873-14.049-17.792-22.805.09-9.791,9.843-12.325,21.845-12.221s21.713,2.818,21.623,12.609c-.084,8.642-7.748,19.916-17.791,22.387q-.02.48-.024.96a17.77,17.77,0,0,0,2.359,9.251,16.68,16.68,0,0,0,21.414,6.3q.32-.157.65-.337a3.931,3.931,0,0,1,2.1-1.381c2.873-2.236,5.725-6.061,6.782-12.592a3.931,3.931,0,0,1,7.744,1.26c-1.213,7.449-4.582,13.5-9.652,17.476-.387,10.819-3.816,20.093-9.981,26.93a34.027,34.027,0,0,1-25.329,11.3Zm73.281-39.76a17.786,17.786,0,0,1-14.215-14.333c-4.514-25.947-14.314-46.561-31.139-60.108a17.587,17.587,0,0,1-5.3-20.022C160.123-7.551,220.18-14.4,244.223,42.431c16.846,40.487-5.413,77.331-37.565,77.33A44.176,44.176,0,0,1,198.287,118.947ZM5.775,42.431c24.043-56.835,84.1-49.981,96.59-17.947a17.594,17.594,0,0,1-5.3,20.022C80.244,58.052,70.444,78.666,65.925,104.614a17.774,17.774,0,0,1-14.215,14.333,44.165,44.165,0,0,1-8.37.814C11.193,119.762-11.067,82.918,5.775,42.431Z" transform="translate(0 46)" fill="#041433"/>
  </g>
</svg>
