<svg xmlns="http://www.w3.org/2000/svg" xmlns:xlink="http://www.w3.org/1999/xlink" width="730" height="730" viewBox="0 0 730 730">
  <defs>
    <clipPath id="clip-path">
      <path id="Path_413" data-name="Path 413" d="M193.984,221.35,140.35,258.881l122.624-3.468L304.1,221.845Z" transform="translate(-140.35 -221.35)" fill="#f4f4ff" stroke="#263238" stroke-linecap="round" stroke-linejoin="round" stroke-width="1"/>
    </clipPath>
    <clipPath id="clip-path-2">
      <path id="Path_418" data-name="Path 418" d="M187.39,269.428s44.045-38.145,87.589-51.025,52.553-10.9,51.552,8.422S304.509,347.2,290.494,372.965s-31.532,72.823-31.031,81.74S276.981,489.877,292,499.29s13.514,20.806,4,22.788-20.521,5.449-53.054-15.357S196.9,456.191,198.9,448.76s23.023-17.339,31.532-32.2,22.523-70.346,23.524-95.611a148.807,148.807,0,0,1,10.01-46.567S208.912,284.29,192.9,294.2Z" transform="translate(-187.39 -210.222)" fill="#e6dff5" stroke="#263238" stroke-linecap="round" stroke-linejoin="round" stroke-width="1"/>
    </clipPath>
    <clipPath id="clip-path-3">
      <path id="Path_448" data-name="Path 448" d="M286.331,383.849a65.4,65.4,0,0,1-13.353-11.889c-10.331-4.34-24.024-9.908-36.2-17.339-13.013-7.926-10.01-12.88-17.518-20.311-5.766-5.707-17.1-6.44-22.022-6.48a13.382,13.382,0,0,0-4,5.489c-2,7.431,11.512,37.154,44.045,57.961s43.544,17.339,53.054,15.357S301.346,393.261,286.331,383.849Z" transform="translate(-193.044 -327.83)" fill="#e6dff5" stroke="#263238" stroke-linecap="round" stroke-linejoin="round" stroke-width="1"/>
    </clipPath>
    <clipPath id="clip-hero">
      <rect width="730" height="730"/>
    </clipPath>
  </defs>
  <g id="hero" clip-path="url(#clip-hero)">
    <g id="Layer_2" data-name="Layer 2" transform="translate(-15.72 0.5)">
      <g id="Group_270" data-name="Group 270" transform="translate(15.72 -0.5)">
        <path id="XMLID_1463_" d="M323.887,548.47c9.668-15.323,23.4-28.486,38.758-39.342,16.388-11.588,35.433-19.442,52.043-30.7,17.331-11.753,32.056-30.884,22.645-50.766-7.937-16.769-24.359-29.548-33.821-45.731-17.536-29.969-22.593-64.716-17.639-98.053C396.552,212.059,451.784,155.6,522.666,124.02c75.751-33.758,164.2-41.612,247.24-30.664a508.6,508.6,0,0,1,127.16,33.923c19.319,7.964,39.084,16.788,56.157,28.266,14.262,9.593,26.844,22.115,29.382,38.5,3,19.387-8.4,37.42-20.056,52.889C948.32,265.827,933.6,284.445,919.11,303.21c-13.474,17.428-28.456,34.546-39.5,53.365-10.2,17.392-14.3,37.017-1.851,54.409,9.737,13.584,25.61,22.957,39.975,32.22,15.976,10.325,30.873,21.31,43.112,35.241,25.1,28.577,39.032,64.514,37.592,100.982-1.44,36.724-17.485,72.331-45.186,99.426-25.13,24.586-58.54,41.136-93.613,51.425-56.775,16.641-117.012,19.607-176.323,17.666-90.3-2.966-200.545-5.126-283.718-42.4-15.411-6.517-30.05-14.609-42.872-24.7-8.5-6.7-32.364-25.245-32.364-36.3C306.162,614.119,304.739,578.823,323.887,548.47Z" transform="translate(-310.111 -19.466)" fill="#f4f4ff"/>
        <path id="XMLID_1080_" d="M682.392,245.751c8.571-1.574,14.091,4.668,18.016,11.955,4.594,8.549,8.862,16.916,13.748,25.319,3.017,5.2,5.108,11.717,2.914,17.373-2.5,6.462-9.754,9.428-16.3,9.337-12.754-.183-24.119-9.758-29.947-21.456C664,274.658,664.359,249.047,682.392,245.751Z" transform="translate(-640.863 110.764)" fill="#f0f7ff"/>
        <path id="XMLID_1078_" d="M339.342,217.234A70.594,70.594,0,0,1,367.1,230.525a94.691,94.691,0,0,1,21.393,16.7c9.068,9.373,23.073,24.294,19.8,43.15-3.257,18.728-18.033,24.66-29.347,27.717a70.63,70.63,0,0,1-69.562-18.6c-9.685-9.684-19.868-23.8-22.353-41.264C281.2,217.4,320.9,213.243,339.342,217.234Z" transform="translate(320.226 86.282)" fill="#f4f4ff"/>
        <path id="XMLID_1076_" d="M607.809,113.878A43.809,43.809,0,0,1,612.9,95.094c16.885-29.786,64.694-47.562,95.927-43.662,10.32,1.3,20.553,5.748,27.667,13.84a24.961,24.961,0,0,1,6.36,12.87,18.755,18.755,0,0,1-4.56,14.865c-7.251,7.89-20.039,5.474-29.33,7.048-12.171,2.069-21.8,7.634-30.256,17.337-10.148,11.662-16.4,28.5-29.484,36.852C622.465,171.325,606.18,140.24,607.809,113.878Z" transform="translate(-564.702 -50.899)" fill="#f4f4ff"/>
      </g>
      <g id="Group_544" data-name="Group 544" transform="translate(15.72 0.5)">
        <path id="XMLID_1463_2" data-name="XMLID_1463_" d="M323.886,548.443c9.668-15.322,23.4-28.484,38.756-39.34,16.387-11.588,35.43-19.441,52.04-30.7,17.33-11.752,32.054-30.882,22.643-50.763-7.936-16.768-24.357-29.546-33.819-45.728-17.535-29.967-22.592-64.712-17.638-98.047,10.679-71.815,65.907-128.27,136.785-159.848C598.4,90.262,686.848,82.409,769.879,93.356a508.565,508.565,0,0,1,127.152,33.921c19.318,7.963,39.081,16.787,56.154,28.264,14.261,9.592,26.843,22.114,29.38,38.5,3,19.386-8.4,37.418-20.055,52.886-14.227,18.892-28.951,37.509-43.435,56.273-13.473,17.427-28.454,34.544-39.493,53.362-10.2,17.391-14.3,37.015-1.851,54.406,9.736,13.583,25.609,22.956,39.973,32.219,15.976,10.325,30.871,21.308,43.11,35.239C985.908,507,999.843,542.933,998.4,579.4c-1.44,36.722-17.484,72.327-45.184,99.42-25.129,24.585-58.537,41.134-93.607,51.422-56.771,16.64-117,19.606-176.313,17.665-90.3-2.966-200.533-5.126-283.7-42.4-15.41-6.517-30.048-14.608-42.87-24.695-8.5-6.7-32.362-25.244-32.362-36.3C306.162,614.089,304.74,578.795,323.886,548.443Z" transform="translate(-310.111 -20.513)" fill="#f4f4ff"/>
        <path id="XMLID_1080_2" data-name="XMLID_1080_" d="M682.391,245.751c8.57-1.574,14.09,4.668,18.015,11.954,4.594,8.549,8.862,16.915,13.747,25.317,3.017,5.2,5.108,11.716,2.914,17.372-2.5,6.462-9.753,9.428-16.3,9.336-12.753-.183-24.117-9.757-29.945-21.455C664,274.656,664.359,249.046,682.391,245.751Z" transform="translate(-640.865 109.7)" fill="#f0f7ff"/>
        <path id="XMLID_1078_2" data-name="XMLID_1078_" d="M339.339,217.234a70.59,70.59,0,0,1,27.751,13.29,94.684,94.684,0,0,1,21.392,16.7c9.068,9.373,23.072,24.292,19.8,43.147-3.257,18.727-18.032,24.658-29.346,27.715a70.626,70.626,0,0,1-69.558-18.6c-9.685-9.684-19.866-23.8-22.352-41.262C281.2,217.4,320.9,213.243,339.339,217.234Z" transform="translate(321.233 85.222)" fill="#f4f4ff"/>
        <path id="XMLID_1076_2" data-name="XMLID_1076_" d="M607.809,113.874A43.805,43.805,0,0,1,612.9,95.092c16.884-29.784,64.69-47.559,95.921-43.66,10.319,1.3,20.552,5.748,27.666,13.839a24.96,24.96,0,0,1,6.359,12.869A18.754,18.754,0,0,1,738.286,93c-7.25,7.89-20.038,5.473-29.328,7.048-12.17,2.069-21.8,7.634-30.254,17.336-10.147,11.661-16.4,28.5-29.483,36.85C622.464,171.318,606.18,140.235,607.809,113.874Z" transform="translate(-564.705 -50.899)" fill="#f4f4ff"/>
      </g>
      <g id="Plants" transform="translate(15.721 0.541)">
        <line id="Line_1" data-name="Line 1" y1="445.734" transform="translate(292.736 68.939)" fill="none" stroke="#003c7a" stroke-linecap="round" stroke-linejoin="round" stroke-width="1"/>
        <path id="Path_384" data-name="Path 384" d="M8.21,262.45H292.277l431.577,137.9" transform="translate(-8.21 256.622)" fill="none" stroke="#192135" stroke-linecap="round" stroke-linejoin="round" stroke-width="1"/>
        <path id="Path_385" data-name="Path 385" d="M106.177,447.192H86.457V126.059H127L109.521,63.6H57.068L39.59,126.059h40.5V447.192H60.431a19.126,19.126,0,0,0-19.2,18.666v.3h0c.581,4.478,19.159,8.085,42.043,8.085s41.442-3.606,42.043-8.085h0A19.122,19.122,0,0,0,106.177,447.192Z" transform="translate(23.234 61.437)" fill="#6733e3"/>
        <path id="Path_386" data-name="Path 386" d="M203.41,47.344v378.2l287.611,46.765V.5ZM483.573,155.617,337.325,163.8V32.443L483.573,9.417ZM337.325,177.633l146.248-6.638V303.086l-146.248-6.757ZM325.453,295.774l-117.219-5.43V183.5l117.219-5.33Zm0-261.468V164.475l-117.219,6.579V52.774Zm-117.219,268.5,117.219,6.658v129.02L208.235,420.038ZM337.325,440.369V310.16l146.248,8.323V463.395Z" transform="translate(187.385 -0.5)" fill="#f29f4a"/>
        <ellipse id="Ellipse_12" data-name="Ellipse 12" cx="230.133" cy="70.96" rx="230.133" ry="70.96" transform="translate(61.462 561.002)" fill="#e9e2f8"/>
        <path id="Path_387" data-name="Path 387" d="M219.017,161.823s-52.053-6.123-86.447,20.371S68.745,319.4,69.426,372.424s20.6,79.461,70.692,101.2,143.405,13.594,195.558-2.715,69.31-73.318,68.629-103.914-35-65.887-46.667-73.318-44.605-23.085-61.062-47.558S256.075,168.6,219.017,161.823Z" transform="translate(53.118 157.249)" fill="#8054e7"/>
        <g id="Group_272" data-name="Group 272" transform="translate(122.532 339.007)">
          <path id="Path_388" data-name="Path 388" d="M345.245,457.065c-19.72-2.635-43.1-7.926-60.8-18.567-37.378-22.471-46.707-64.738-60.061-80.59S187,343.382,176.334,326.2,183,182.2,152.31,174.275a71.131,71.131,0,0,0-19.159-2.695,6.285,6.285,0,0,0-.581.436C98.255,198.51,68.745,309.22,69.426,362.247s20.6,79.461,70.692,101.2,143.405,13.594,195.558-2.715a86.628,86.628,0,0,0,9.57-3.666Z" transform="translate(-69.414 -171.58)" fill="#6733e3"/>
        </g>
        <path id="Path_390" data-name="Path 390" d="M219.017,161.823s-52.053-6.123-86.447,20.371S68.745,319.4,69.426,372.424s20.6,79.461,70.692,101.2,143.405,13.594,195.558-2.715,69.31-73.318,68.629-103.914-35-65.887-46.667-73.318-44.605-23.085-61.062-47.558S256.075,168.6,219.017,161.823Z" transform="translate(53.118 157.249)" fill="none" stroke="#192135" stroke-linecap="round" stroke-linejoin="round" stroke-width="1"/>
        <path id="Path_391" data-name="Path 391" d="M169.462,175.53s-34.034,6.44-40.041,12.385S98.39,286.993,98.39,286.993a37.6,37.6,0,0,1,21.021.991c10.01,3.963,11.011,14.366,12.012,19.32a175.49,175.49,0,0,1,1.5,17.834s101.162-8.957,122.684-13.871S309.824,304,309.824,304s-55.336-123.511-63.845-127.97-44.045-4.954-49.05-3.963S169.462,175.53,169.462,175.53Z" transform="translate(82.153 167.48)" fill="#6aac45" stroke="#192135" stroke-linecap="round" stroke-linejoin="round" stroke-width="1"/>
        <line id="Line_2" data-name="Line 2" y1="68.86" x2="8.509" transform="translate(218.081 388.586)" fill="none" stroke="#a5e781" stroke-linecap="round" stroke-linejoin="round" stroke-width="1"/>
        <line id="Line_3" data-name="Line 3" y1="14.862" x2="11.512" transform="translate(224.587 392.054)" fill="none" stroke="#a5e781" stroke-linecap="round" stroke-linejoin="round" stroke-width="1"/>
        <path id="Path_392" data-name="Path 392" d="M137.64,215.5s32.533-10.4,54.055-10.4" transform="translate(121.482 200.329)" fill="none" stroke="#a5e781" stroke-linecap="round" stroke-linejoin="round" stroke-width="1"/>
        <path id="Path_393" data-name="Path 393" d="M154.082,196l-2.162,16.526s5.506,0,6.006,2.477a6.544,6.544,0,0,1-2,4.954s15.516,8.422,17.518,18.329" transform="translate(135.791 191.397)" fill="none" stroke="#a5e781" stroke-linecap="round" stroke-linejoin="round" stroke-width="1"/>
        <path id="Path_394" data-name="Path 394" d="M154.608,164.915s-18.679,5.945-21.362,10.582-.661,36.976-.661,40.939,2.342-2.3,4.344-6.935,9.009-11.553,11.331-10.9,3.684,3.309,3.684,7.609,5.325,10.225,10.01,13.534,9.009,6.6,9.009,6.6,9.67-13.871,12.012-17.5,2-11.235,2.322-13.871,6.346,7.272,7.688,4.617-3-4.954-7.688-12.207-3.323-14.862-10.33-20.153S159.953,163.607,154.608,164.915Z" transform="translate(115.685 159.587)" fill="#fff"/>
        <g id="Group_275" data-name="Group 275" transform="translate(247.545 324.542)">
          <path id="Path_395" data-name="Path 395" d="M133.244,174.822c-1.782,3.071-1.481,18.508-1.081,29.724,4.264-5.449,13.033-15.694,18.138-13.752,6.467,2.477,8.969,20.727,8.969,20.727l-4.384-47.241h-.28S135.927,170.185,133.244,174.822Z" transform="translate(-131.857 -164.28)" fill="#e6dff5"/>
        </g>
        <path id="Path_398" data-name="Path 398" d="M154.608,164.915s-18.679,5.945-21.362,10.582-.661,36.976-.661,40.939,2.342-2.3,4.344-6.935,9.009-11.553,11.331-10.9,3.684,3.309,3.684,7.609,5.325,10.225,10.01,13.534,9.009,6.6,9.009,6.6,9.67-13.871,12.012-17.5,2-11.235,2.322-13.871,6.346,7.272,7.688,4.617-3-4.954-7.688-12.207-3.323-14.862-10.33-20.153S159.953,163.607,154.608,164.915Z" transform="translate(115.685 159.587)" fill="none" stroke="#192135" stroke-linecap="round" stroke-linejoin="round" stroke-width="1"/>
        <path id="Path_399" data-name="Path 399" d="M150.9,240.75S139.384,224.4,125.37,222.916s-31.031,9.908-31.532,13.871-4,25.265-1.5,28.237,12.012,5.449,30.531-.5S148.894,251.153,150.9,240.75Z" transform="translate(75.193 217.686)" fill="#fff"/>
        <g id="Group_276" data-name="Group 276" transform="translate(166.617 440.959)">
          <path id="Path_400" data-name="Path 400" d="M104.059,264.266s-4-11.335-2-15.3,10.01-9.908,14.955-15.853-11.672,3.349-12.473,0c-.621-2.695,8.789-8.085,12.493-10.086-11.652,2.219-22.8,10.225-23.2,13.435-.5,3.963-4,25.265-1.5,28.237,1.281,1.526,4.465,2.913,9.77,3.111C103.318,265.792,104.059,264.266,104.059,264.266Z" transform="translate(-91.434 -223.03)" fill="#e6dff5"/>
        </g>
        <path id="Path_403" data-name="Path 403" d="M150.9,240.75S139.384,224.4,125.37,222.916s-31.031,9.908-31.532,13.871-4,25.265-1.5,28.237,12.012,5.449,30.531-.5S148.894,251.153,150.9,240.75Z" transform="translate(75.193 217.686)" fill="none" stroke="#192135" stroke-linecap="round" stroke-linejoin="round" stroke-width="1"/>
        <path id="Path_404" data-name="Path 404" d="M111.415,250.3s-18.8,7.371-19.52,21.8c-.42,7.926,13.013,11.394,27.027,11.394s34.034-17.339,47.048-24.77,43.044-24.77,46.547-26.256,15.516,2.477,20.521,3.963a68.361,68.361,0,0,0,14.515,1.486s7.007,10.9,10.511,10.9-7.508-16.348-9.009-19.816S223.027,217.6,220.024,217.6s-73.074,17.339-83.585,21.3S111.415,250.3,111.415,250.3Z" transform="translate(75.635 212.599)" fill="#fff"/>
        <g id="Group_277" data-name="Group 277" transform="translate(167.52 430.199)">
          <path id="Path_405" data-name="Path 405" d="M150.654,248.235c28.629-14.168,69.37-30.635,69.37-30.635-3,0-73.074,17.339-83.585,21.3S111.415,250.3,111.415,250.3s-18.8,7.371-19.52,21.8c-.42,7.926,13.013,11.394,27.027,11.394s34.034-17.339,47.048-24.77l7.888-4.518C154.718,256.637,129.173,258.856,150.654,248.235Z" transform="translate(-91.885 -217.6)" fill="#e6dff5"/>
        </g>
        <path id="Path_408" data-name="Path 408" d="M111.415,250.3s-18.8,7.371-19.52,21.8c-.42,7.926,13.013,11.394,27.027,11.394s34.034-17.339,47.048-24.77,43.044-24.77,46.547-26.256,15.516,2.477,20.521,3.963a68.361,68.361,0,0,0,14.515,1.486s7.007,10.9,10.511,10.9-7.508-16.348-9.009-19.816S223.027,217.6,220.024,217.6s-73.074,17.339-83.585,21.3S111.415,250.3,111.415,250.3Z" transform="translate(75.635 212.599)" fill="none" stroke="#192135" stroke-linecap="round" stroke-linejoin="round" stroke-width="1"/>
        <path id="Path_409" data-name="Path 409" d="M182.375,180.474,167.14,265.4l110.111.5,16.377-80.452a4.975,4.975,0,0,0-1.021-4.066,5.083,5.083,0,0,0-3.784-1.879l-101.3-3.032a5.075,5.075,0,0,0-5.145,4Z" transform="translate(151.042 172.226)" fill="#fff" stroke="#192135" stroke-linecap="round" stroke-linejoin="round" stroke-width="1"/>
        <path id="Path_410" data-name="Path 410" d="M193.984,221.35,140.35,258.881l122.624-3.468L304.1,221.845Z" transform="translate(124.198 216.28)" fill="#fff"/>
        <g id="Group_259" data-name="Group 259" transform="translate(264.548 437.63)" clip-path="url(#clip-path)">
          <path id="Path_411" data-name="Path 411" d="M193.984,221.35,140.35,258.881l122.624-3.468L304.1,221.845Z" transform="translate(-140.35 -221.35)" fill="#f4f4ff"/>
          <path id="Path_412" data-name="Path 412" d="M193.984,221.35,140.35,258.881l122.624-3.468L304.1,221.845Z" transform="translate(-140.35 -221.35)" fill="#f4f4ff" opacity="0.5"/>
        </g>
        <path id="Path_414" data-name="Path 414" d="M193.984,221.35,140.35,258.881l122.624-3.468L304.1,221.845Z" transform="translate(124.198 216.28)" fill="none" stroke="#192135" stroke-linecap="round" stroke-linejoin="round" stroke-width="1"/>
        <path id="Path_415" data-name="Path 415" d="M187.39,269.428s44.045-38.145,87.589-51.025,52.553-10.9,51.552,8.422S304.509,347.2,290.494,372.965s-31.532,72.823-31.031,81.74S276.981,489.877,292,499.29s13.514,20.806,4,22.788-20.521,5.449-53.054-15.357S196.9,456.191,198.9,448.76s23.023-17.339,31.532-32.2,22.523-70.346,23.524-95.611a148.807,148.807,0,0,1,10.01-46.567S208.912,284.29,192.9,294.2Z" transform="translate(171.333 205.356)" fill="#fff"/>
        <g id="Group_260" data-name="Group 260" transform="translate(358.723 415.578)" clip-path="url(#clip-path-2)">
          <path id="Path_416" data-name="Path 416" d="M187.39,269.428s44.045-38.145,87.589-51.025,52.553-10.9,51.552,8.422S304.509,347.2,290.494,372.965s-31.532,72.823-31.031,81.74S276.981,489.877,292,499.29s13.514,20.806,4,22.788-20.521,5.449-53.054-15.357S196.9,456.191,198.9,448.76s23.023-17.339,31.532-32.2,22.523-70.346,23.524-95.611a148.807,148.807,0,0,1,10.01-46.567S208.912,284.29,192.9,294.2Z" transform="translate(-187.39 -210.222)" fill="#e6dff5"/>
          <path id="Path_417" data-name="Path 417" d="M187.39,269.428s44.045-38.145,87.589-51.025,52.553-10.9,51.552,8.422S304.509,347.2,290.494,372.965s-31.532,72.823-31.031,81.74S276.981,489.877,292,499.29s13.514,20.806,4,22.788-20.521,5.449-53.054-15.357S196.9,456.191,198.9,448.76s23.023-17.339,31.532-32.2,22.523-70.346,23.524-95.611a148.807,148.807,0,0,1,10.01-46.567S208.912,284.29,192.9,294.2Z" transform="translate(-187.39 -210.222)" fill="#e6dff5" opacity="0.5"/>
        </g>
        <path id="Path_419" data-name="Path 419" d="M187.39,269.428s44.045-38.145,87.589-51.025,52.553-10.9,51.552,8.422S304.509,347.2,290.494,372.965s-31.532,72.823-31.031,81.74S276.981,489.877,292,499.29s13.514,20.806,4,22.788-20.521,5.449-53.054-15.357S196.9,456.191,198.9,448.76s23.023-17.339,31.532-32.2,22.523-70.346,23.524-95.611a148.807,148.807,0,0,1,10.01-46.567S208.912,284.29,192.9,294.2Z" transform="translate(171.333 205.356)" fill="none" stroke="#192135" stroke-linecap="round" stroke-linejoin="round" stroke-width="1"/>
        <path id="Path_420" data-name="Path 420" d="M230.434,416.559a36.387,36.387,0,0,1-2.142,3.25,51.773,51.773,0,0,1,28.169,11.612,91.988,91.988,0,0,1,6.847,6.539,431.508,431.508,0,0,1,27.188-65c14.014-25.76,35.035-126.82,36.036-146.141s-8.008-21.3-51.552-8.422-87.589,51.025-87.589,51.025L192.9,294.2c16.016-9.908,71.072-19.816,71.072-19.816a148.807,148.807,0,0,0-10.01,46.567C252.956,346.214,238.942,401.7,230.434,416.559Z" transform="translate(171.333 205.356)" fill="#fff" stroke="#263238" stroke-linecap="round" stroke-linejoin="round" stroke-width="1"/>
        <path id="Path_421" data-name="Path 421" d="M230.434,416.559a36.387,36.387,0,0,1-2.142,3.25,51.773,51.773,0,0,1,28.169,11.612,91.988,91.988,0,0,1,6.847,6.539c9.59-12.741,20.381-53.007,32.553-69.553,31.452-42.782,29.67-122.263,30.671-141.583s-8.008-21.3-51.552-8.422-87.589,51.025-87.589,51.025L192.9,294.2c16.016-9.908,71.072-19.816,71.072-19.816a148.806,148.806,0,0,0-10.01,46.567C252.956,346.214,238.942,401.7,230.434,416.559Z" transform="translate(171.333 205.356)" fill="#f29f4a"/>
        <g id="Group_271" data-name="Group 271" transform="translate(358.723 428.578)">
          <path id="Path_423" data-name="Path 423" d="M305.369,217.769c-.8-7.035-78.2,25.384-110.852,39.394-4.525,3.567-7.127,5.826-7.127,5.826l5.506,24.77c16.016-9.908,71.072-19.816,71.072-19.816a148.806,148.806,0,0,0-10.01,46.567c-1,25.265-15.015,80.749-23.524,95.611a36.411,36.411,0,0,1-2.142,3.25,57.878,57.878,0,0,1,16.016,4.082c12.132-25.364,24.965-54.771,31.071-77.816C286.35,298.022,306.37,226.686,305.369,217.769Z" transform="translate(-187.39 -216.782)" fill="#fec73b" opacity="0.14"/>
          <path id="Path_424" data-name="Path 424" d="M225.64,263.7s15.015-30.219,28.028-42.6" transform="translate(-149.063 -212.544)" fill="none" stroke="#192135" stroke-linecap="round" stroke-linejoin="round" stroke-width="1"/>
        </g>
        <path id="Path_426" data-name="Path 426" d="M230.434,416.559a36.387,36.387,0,0,1-2.142,3.25,51.773,51.773,0,0,1,28.169,11.612,91.988,91.988,0,0,1,6.847,6.539c9.59-12.741,20.381-53.007,32.553-69.553,31.452-42.782,29.67-122.263,30.671-141.583s-8.008-21.3-51.552-8.422-87.589,51.025-87.589,51.025L192.9,294.2c16.016-9.908,71.072-19.816,71.072-19.816a148.806,148.806,0,0,0-10.01,46.567C252.956,346.214,238.942,401.7,230.434,416.559Z" transform="translate(171.333 205.356)" fill="none" stroke="#003c7a" stroke-linecap="round" stroke-linejoin="round" stroke-width="1"/>
        <path id="Path_427" data-name="Path 427" d="M154.522,273.176a173.366,173.366,0,0,0,47.348-8.838c22.643-8.144-18.539-23.085-34.315-14.941a23.174,23.174,0,0,0-13.033,23.779Z" transform="translate(138.215 241.497)" fill="#6733e3"/>
        <path id="Path_428" data-name="Path 428" d="M133.064,262.423s-16.016,8.917-21.522,18.825,18.178,26.414,43.2,25.423,70.912-27.9,70.912-27.9.5,43.595,9.009,59.447,47.548,54.493,63.064,64.4,67.568,47.062,75.577,53.007,23.023,16.843,26.527,17.339,40.041-43.595,48.549-58.456S464.4,368.437,461.4,361.5s-9.009-.991-15.015,3.963-61.062,41.118-66.067,43.595a55.257,55.257,0,0,1-8.509,3.468s-45.046-42.6-69.07-75.3-26.026-74.8-35.035-90.657-22.022-22.788-41.542-20.807S166.1,238.148,133.064,262.423Z" transform="translate(94.526 220.288)" fill="#fff"/>
        <g id="Group_280" data-name="Group 280" transform="translate(439.364 643.733)">
          <path id="Path_429" data-name="Path 429" d="M227.67,337.131c13.374,9.472,25.005,17.834,28.469,20.41,8.008,5.945,23.023,16.843,26.527,17.339,1.241.178,6.647-5.271,13.474-13.019l-57.318-36.5Z" transform="translate(-227.67 -325.36)" fill="#cce5ff"/>
          <path id="Path_430" data-name="Path 430" d="M227.67,337.131c13.374,9.472,25.005,17.834,28.469,20.41,8.008,5.945,23.023,16.843,26.527,17.339,1.241.178,6.647-5.271,13.474-13.019l-57.318-36.5Z" transform="translate(-227.67 -325.36)" fill="#e6dff5" opacity="0.5"/>
        </g>
        <path id="Path_432" data-name="Path 432" d="M133.064,262.423s-16.016,8.917-21.522,18.825,18.178,26.414,43.2,25.423,70.912-27.9,70.912-27.9.5,43.595,9.009,59.447,47.548,54.493,63.064,64.4,67.568,47.062,75.577,53.007,23.023,16.843,26.527,17.339,40.041-43.595,48.549-58.456S464.4,368.437,461.4,361.5s-9.009-.991-15.015,3.963-61.062,41.118-66.067,43.595a55.257,55.257,0,0,1-8.509,3.468s-45.046-42.6-69.07-75.3-26.026-74.8-35.035-90.657-22.022-22.788-41.542-20.807S166.1,238.148,133.064,262.423Z" transform="translate(94.526 220.288)" fill="none" stroke="#192135" stroke-linecap="round" stroke-linejoin="round" stroke-width="1"/>
        <path id="Path_433" data-name="Path 433" d="M371.786,409.728c-10.571-10.205-50.291-62.935-65.947-93.253-22.963-44.427-25.446-59.566-34.455-75.419s-22.6-17.081-42.043-15.1-54.455,5.568-97.3,29.724c0,0-18.018,9.67-23.5,19.578s14.535,34.856,49.39,31.705c24.945-2.259,70.912-27.9,70.912-27.9s.5,43.595,9.009,59.447S285.4,393,300.914,402.911c9.83,6.282,34.355,23.521,53.034,36.8C358.613,423.024,366.821,413.928,371.786,409.728Z" transform="translate(91.423 220.095)" fill="#f29f4a"/>
        <path id="Path_437" data-name="Path 437" d="M371.786,409.728c-10.571-10.205-50.291-62.935-65.947-93.253-22.963-44.427-25.446-59.566-34.455-75.419s-22.6-17.081-42.043-15.1-54.455,5.568-97.3,29.724c0,0-18.018,9.67-23.5,19.578s14.535,34.856,49.39,31.705c24.945-2.259,70.912-27.9,70.912-27.9s.5,43.595,9.009,59.447S285.4,393,300.914,402.911c9.83,6.282,34.355,23.521,53.034,36.8C358.613,423.024,366.821,413.928,371.786,409.728Z" transform="translate(91.423 220.095)" fill="none" stroke="#192135" stroke-linecap="round" stroke-linejoin="round" stroke-width="1"/>
        <path id="Path_438" data-name="Path 438" d="M243.5,389.788c8.008,5.945,23.023,16.843,26.527,17.339s40.041-43.594,48.549-58.456S334.6,302.6,331.592,295.664s-9.009-.991-15.015,3.963-61.062,41.118-66.067,43.595c-1.321.634-2.523,1.189-3.584,1.645-1.461,2.715-3.2,6.916-2,9.749,2,4.459,10.511,10.4,10.511,10.4L240.28,387.49Z" transform="translate(224.33 286.125)" fill="#003c7a"/>
        <path id="Path_439" data-name="Path 439" d="M307.948,348.661c8.509-14.862,16.016-46.072,13.013-53.007-1.742-3.963-4.5-3.706-7.668-1.783,2.1,9.274,0,27.128-10.35,46.369C293.713,357.4,265.2,387.8,250.89,402.5a34.142,34.142,0,0,0,8.569,4.617C262.9,407.612,299.439,363.522,307.948,348.661Z" transform="translate(234.962 286.135)" fill="#fff"/>
        <g id="Group_279" data-name="Group 279" transform="translate(485.791 674.725)">
          <path id="Path_440" data-name="Path 440" d="M259.929,359.389l.44-.238h.12c.2-.119.44-.3.681-.476l.24-.2.581-.5.32-.277.841-.852.48-.456.661-.634.561-.555.561-.575,1.421-1.466.24-.238.881-.971.36-.376c1.041-1.11,2.162-2.338,3.323-3.646h0c.4-.456.821-.912,1.221-1.387h0L264.154,341c-4.985,5.35-9.59,10.185-13.293,13.871h0l1.361.872.2.119,1.221.773h0a22.35,22.35,0,0,0,2,1.13l.541.317.581.3.621.317.44.2.621.258.3.119a4.481,4.481,0,0,0,.721.2,1.092,1.092,0,0,0,.38,0Z" transform="translate(-250.86 -341)" fill="#e6dff5"/>
        </g>
        <path id="Path_443" data-name="Path 443" d="M307.948,348.661c8.509-14.862,16.016-46.072,13.013-53.007-1.742-3.963-4.5-3.706-7.668-1.783,2.1,9.274,0,27.128-10.35,46.369C293.713,357.4,265.2,387.8,250.89,402.5a34.142,34.142,0,0,0,8.569,4.617C262.9,407.612,299.439,363.522,307.948,348.661Z" transform="translate(234.962 286.135)" fill="none" stroke="#192135" stroke-linecap="round" stroke-linejoin="round" stroke-width="1"/>
        <path id="Path_444" data-name="Path 444" d="M286.361,388.433c-15.015-9.413-32.032-35.668-32.533-44.585a15.459,15.459,0,0,1,.22-2.933,14.487,14.487,0,0,0-8.228,2.933A191.037,191.037,0,0,0,226.3,328.49a41.191,41.191,0,0,0-18.018-5.33c-7.267,5.945-14.014,10.7-15.075,14.743-2,7.431,11.512,37.154,44.045,57.961S280.8,413.2,290.3,411.221,301.376,397.845,286.361,388.433Z" transform="translate(176.968 316.213)" fill="#003c7a"/>
        <path id="Path_445" data-name="Path 445" d="M286.331,383.849a65.4,65.4,0,0,1-13.353-11.889c-10.331-4.34-24.024-9.908-36.2-17.339-13.013-7.926-10.01-12.88-17.518-20.311-5.766-5.707-17.1-6.44-22.022-6.48a13.382,13.382,0,0,0-4,5.489c-2,7.431,11.512,37.154,44.045,57.961s43.544,17.339,53.054,15.357S301.346,393.261,286.331,383.849Z" transform="translate(176.998 320.797)" fill="#fff"/>
        <g id="Group_265" data-name="Group 265" transform="translate(370.042 648.627)" clip-path="url(#clip-path-3)">
          <path id="Path_446" data-name="Path 446" d="M286.331,383.849a65.4,65.4,0,0,1-13.353-11.889c-10.331-4.34-24.024-9.908-36.2-17.339-13.013-7.926-10.01-12.88-17.518-20.311-5.766-5.707-17.1-6.44-22.022-6.48a13.382,13.382,0,0,0-4,5.489c-2,7.431,11.512,37.154,44.045,57.961s43.544,17.339,53.054,15.357S301.346,393.261,286.331,383.849Z" transform="translate(-193.044 -327.83)" fill="#e6dff5"/>
          <path id="Path_447" data-name="Path 447" d="M286.331,383.849a65.4,65.4,0,0,1-13.353-11.889c-10.331-4.34-24.024-9.908-36.2-17.339-13.013-7.926-10.01-12.88-17.518-20.311-5.766-5.707-17.1-6.44-22.022-6.48a13.382,13.382,0,0,0-4,5.489c-2,7.431,11.512,37.154,44.045,57.961s43.544,17.339,53.054,15.357S301.346,393.261,286.331,383.849Z" transform="translate(-193.044 -327.83)" fill="#e6dff5" opacity="0.5"/>
        </g>
        <path id="Path_449" data-name="Path 449" d="M286.331,383.849a65.4,65.4,0,0,1-13.353-11.889c-10.331-4.34-24.024-9.908-36.2-17.339-13.013-7.926-10.01-12.88-17.518-20.311-5.766-5.707-17.1-6.44-22.022-6.48a13.382,13.382,0,0,0-4,5.489c-2,7.431,11.512,37.154,44.045,57.961s43.544,17.339,53.054,15.357S301.346,393.261,286.331,383.849Z" transform="translate(176.998 320.797)" fill="none" stroke="#003c7a" stroke-linecap="round" stroke-linejoin="round" stroke-width="1"/>
        <path id="Path_450" data-name="Path 450" d="M288.811,385.348c-13.013-7.431-39.54-12.385-56.557-23.779s-12.513-21.3-25.025-29.228a12.821,12.821,0,0,0-14.014-.793c-1.742,7.708,11.812,37.115,44.045,57.763s43.544,17.339,53.054,15.357c6.306-1.328,9.069-6.8,5.806-13.1a27.452,27.452,0,0,0-7.307-6.222Z" transform="translate(177.02 322.766)" fill="#9289a6"/>
        <path id="Path_453" data-name="Path 453" d="M288.811,385.348c-13.013-7.431-39.54-12.385-56.557-23.779s-12.513-21.3-25.025-29.228a12.821,12.821,0,0,0-14.014-.793c-1.742,7.708,11.812,37.115,44.045,57.763s43.544,17.339,53.054,15.357c6.306-1.328,9.069-6.8,5.806-13.1a27.452,27.452,0,0,0-7.307-6.222Z" transform="translate(177.02 322.766)" fill="none" stroke="#192135" stroke-linecap="round" stroke-linejoin="round" stroke-width="1"/>
        <path id="Path_454" data-name="Path 454" d="M119.747,312.994s9.61-11.552,10.971-2.715-.681,25.126-7.548,31.23-10.29-3.389-10.29-3.389L117,332.691s3.423,6.777,6.166-4.082-5.486-9.512-5.486-9.512Z" transform="translate(96.672 300.302)" fill="#fff" stroke="#192135" stroke-linecap="round" stroke-linejoin="round" stroke-width="1"/>
        <path id="Path_455" data-name="Path 455" d="M132.683,357.462c-5.686,4.181-24.225,4.181-29.91,0-12.012-8.818-10.01-51.4-10.01-51.4h49.77S144.715,348.565,132.683,357.462Z" transform="translate(76.388 299.429)" fill="#fff" stroke="#192135" stroke-linecap="round" stroke-linejoin="round" stroke-width="1"/>
        <path id="Path_456" data-name="Path 456" d="M95.43,328.381c0-5.37,5.005-5.37,5.005-10.72s-5.005-5.37-5.005-10.72,5.005-5.37,5.005-10.74-5.005-5.37-5.005-10.74,5.005-5.37,5.005-10.74" transform="translate(79.187 268.666)" fill="none" stroke="#192135" stroke-linecap="round" stroke-linejoin="round" stroke-width="1"/>
        <path id="Path_457" data-name="Path 457" d="M104,321.981c0-4.062,5.005-4.062,5.005-8.144S104,309.775,104,305.693s5.005-4.082,5.005-8.144S104,293.466,104,289.384s5.005-4.082,5.005-8.144" transform="translate(87.774 275.066)" fill="none" stroke="#192135" stroke-linecap="round" stroke-linejoin="round" stroke-width="1"/>
        <path id="Path_458" data-name="Path 458" d="M113.47,328.381c0-5.37,5.005-5.37,5.005-10.72s-5.005-5.37-5.005-10.72,5.005-5.37,5.005-10.74-5.005-5.37-5.005-10.74,5.005-5.37,5.005-10.74" transform="translate(97.263 268.666)" fill="none" stroke="#192135" stroke-linecap="round" stroke-linejoin="round" stroke-width="1"/>
        <path id="Path_459" data-name="Path 459" d="M142.5,307.109c0,1.229-11.151,2.239-24.885,2.239s-24.885-1.011-24.885-2.239,11.131-2.239,24.885-2.239S142.5,305.9,142.5,307.109Z" transform="translate(76.481 298.26)" fill="#fff" stroke="#192135" stroke-linecap="round" stroke-linejoin="round" stroke-width="1"/>
        <path id="Path_460" data-name="Path 460" d="M140.54,151.6s2.322,25.027,3.3,32.934,3.223,30.615,5.526,38.125,14.855,20.569,16.016,17.537,7.428-23.422,4.945-35.549-3.243-22.689-1.7-25.76,7.087-6.559,7.087-6.559a198.856,198.856,0,0,1-18.8-10.819C148.048,155.607,141.761,148.909,140.54,151.6Z" transform="translate(124.388 147.217)" fill="#fff"/>
        <g id="Group_274" data-name="Group 274" transform="translate(264.988 298.131)">
          <path id="Path_461" data-name="Path 461" d="M172.643,173.577l-2-3.963c-3.664-1.982-8.789-4.895-13.654-8.124-8.909-5.945-15.2-12.642-16.417-9.908,0,0,2.322,25.027,3.3,32.934s3.223,30.615,5.526,38.125a24.736,24.736,0,0,0,3.223,6.163c-2.422-14.941.2-41.91.2-41.91Z" transform="translate(-140.57 -150.952)" fill="#e6dff5"/>
        </g>
        <path id="Path_464" data-name="Path 464" d="M140.54,151.6s2.322,25.027,3.3,32.934,3.223,30.615,5.526,38.125,14.855,20.569,16.016,17.537,7.428-23.422,4.945-35.549-3.243-22.689-1.7-25.76,7.087-6.559,7.087-6.559a198.856,198.856,0,0,1-18.8-10.819C148.048,155.607,141.761,148.909,140.54,151.6Z" transform="translate(124.388 147.217)" fill="none" stroke="#192135" stroke-linecap="round" stroke-linejoin="round" stroke-width="1"/>
        <path id="Path_465" data-name="Path 465" d="M145.562,183.307S160,195.2,171.048,199.556s28.028,4.082,30.431-1.625-4.184-50.708-9.89-62.578-11.812-12.048-21.862-12.94-30.211,7.213-33.754,16.843.5,23.264,3.423,31.348a60.566,60.566,0,0,0,6.166,12.7Z" transform="translate(118.425 119.1)" fill="#fff"/>
        <g id="Group_273" data-name="Group 273" transform="translate(252.974 241.444)">
          <path id="Path_466" data-name="Path 466" d="M171.468,182.773c-5.105-15.02-6.346-38.561-6.346-44.863,0-4.855,12.773-10.165,18.6-12.345-3.824-2.338-8.268-2.635-14.014-3.151-10.01-.912-30.211,7.213-33.754,16.843s.5,23.264,3.423,31.348a60.567,60.567,0,0,0,6.166,12.7s14.435,11.889,25.486,16.249a46.493,46.493,0,0,0,23.9,2.279C187.164,198.943,174.892,192.78,171.468,182.773Z" transform="translate(-134.569 -122.345)" fill="#e6dff5"/>
        </g>
        <path id="Path_469" data-name="Path 469" d="M145.562,183.307S160,195.2,171.048,199.556s28.028,4.082,30.431-1.625-4.184-50.708-9.89-62.578-11.812-12.048-21.862-12.94-30.211,7.213-33.754,16.843.5,23.264,3.423,31.348a60.566,60.566,0,0,0,6.166,12.7Z" transform="translate(118.425 119.1)" fill="none" stroke="#192135" stroke-linecap="round" stroke-linejoin="round" stroke-width="1"/>
        <path id="Path_470" data-name="Path 470" d="M172.062,143.16c.24,5.707-3.383,10.482-8.008,10.661s-8.669-4.3-8.889-9.908,3.383-10.482,8.008-10.661S171.842,137.453,172.062,143.16Z" transform="translate(139.033 129.801)" fill="none" stroke="#192135" stroke-linecap="round" stroke-linejoin="round" stroke-width="1"/>
        <path id="Path_471" data-name="Path 471" d="M173.838,142.2c.22,5.707-1.622,10.4-4.144,10.5s-4.765-4.439-4.985-10.146,1.622-10.423,4.144-10.522S173.618,136.489,173.838,142.2Z" transform="translate(148.588 128.605)" fill="none" stroke="#192135" stroke-linecap="round" stroke-linejoin="round" stroke-width="1"/>
        <path id="Path_472" data-name="Path 472" d="M163.89,137.21s16.537,3.111,14.955,7.054-12.773,8.2-12.773,8.2" transform="translate(147.785 133.69)" fill="#fff" stroke="#192135" stroke-linecap="round" stroke-linejoin="round" stroke-width="1"/>
        <path id="Path_473" data-name="Path 473" d="M163.39,136.868s.24-1.982,2.783-.733" transform="translate(147.284 132.23)" fill="none" stroke="#192135" stroke-linecap="round" stroke-linejoin="round" stroke-width="1"/>
        <line id="Line_5" data-name="Line 5" x1="30.07" y2="11.711" transform="translate(263.587 274.547)" fill="none" stroke="#192135" stroke-linecap="round" stroke-linejoin="round" stroke-width="1"/>
        <path id="Path_474" data-name="Path 474" d="M155.09,136.427a7.657,7.657,0,0,1,7.508-4.478" transform="translate(138.967 128.509)" fill="none" stroke="#192135" stroke-linecap="round" stroke-linejoin="round" stroke-width="2"/>
        <line id="Line_6" data-name="Line 6" x1="4.625" y2="1.744" transform="translate(309.473 260.576)" fill="none" stroke="#192135" stroke-linecap="round" stroke-linejoin="round" stroke-width="2"/>
        <path id="Path_475" data-name="Path 475" d="M158,148.947s6.006-1.546,9.43,1.982" transform="translate(141.883 144.88)" fill="none" stroke="#192135" stroke-linecap="round" stroke-linejoin="round" stroke-width="1"/>
        <path id="Path_476" data-name="Path 476" d="M161.259,140.5c.28,1.982,0,3.686-.821,3.785s-1.542-1.447-1.822-3.428.1-3.686.821-3.785S161,138.519,161.259,140.5Z" transform="translate(142.408 133.551)" fill="#192135"/>
        <path id="Path_477" data-name="Path 477" d="M156.193,183.338s-2,3.963,3.644,4.161,9.49-2.517,6.747-5.945-6.807-6.638-2.623-11.117,12.312-8.243,7.748-13.237-21.362-.456-17.177-4.5,23.644-8.263,32.373-7.728,25.025-6.163,28.609-14.921-1.441-24.968-13.153-24.076-20.481,11.156-25.686,11.79-15.876-4.994-24.825.1-9.249,19.34-10.01,21.084-12.893,4.4-15.035,16.546a32.123,32.123,0,0,0,8.489,27.266c5.005,5.41,7.267,7.49,7.267,7.49Z" transform="translate(110.216 102.999)" fill="#192135"/>
        <path id="Path_478" data-name="Path 478" d="M128.557,133.93a9.258,9.258,0,0,0,1.3,5.271" transform="translate(112.367 130.471)" fill="none" stroke="#f4f4ff" stroke-linecap="round" stroke-linejoin="round" stroke-width="0.75"/>
        <path id="Path_479" data-name="Path 479" d="M178.59,122.782s-4.384-9.452,6.767-9.452,12.733,13.871,1.2,18.9-36.617,6.3-50.111,12.147a17.6,17.6,0,0,0-6.887,4.835" transform="translate(113.386 110.251)" fill="none" stroke="#f4f4ff" stroke-linecap="round" stroke-linejoin="round" stroke-width="0.75"/>
        <path id="Path_480" data-name="Path 480" d="M155.731,135c-4,1.407-9.189,3.408-14.475,5.826-11.131,5.112-8.749,10.245-8.749,10.245" transform="translate(116.124 131.521)" fill="none" stroke="#f4f4ff" stroke-linecap="round" stroke-linejoin="round" stroke-width="0.75"/>
        <path id="Path_481" data-name="Path 481" d="M149.013,133.8l-2.643.832" transform="translate(130.23 130.343)" fill="none" stroke="#f4f4ff" stroke-linecap="round" stroke-linejoin="round" stroke-width="0.75"/>
        <path id="Path_482" data-name="Path 482" d="M150.523,150.307s-6.467-9.234-13.293-5.509-1.5,16.883,2.6,21.46,12.012-3.963,12.833-6.1" transform="translate(117.788 140.27)" fill="#fff"/>
        <g id="Group_278" data-name="Group 278" transform="translate(251.742 284.183)">
          <path id="Path_483" data-name="Path 483" d="M150.523,150.307s-6.467-9.234-13.293-5.509-1.5,16.883,2.6,21.46,12.012-3.963,12.833-6.1" transform="translate(-133.954 -143.913)" fill="#e6dff5"/>
        </g>
        <path id="Path_486" data-name="Path 486" d="M150.523,150.307s-6.467-9.234-13.293-5.509-1.5,16.883,2.6,21.46,12.012-3.963,12.833-6.1" transform="translate(117.788 140.27)" fill="none" stroke="#192135" stroke-linecap="round" stroke-linejoin="round" stroke-width="1"/>
        <rect id="Rectangle_194" data-name="Rectangle 194" width="164.006" height="124.126" rx="5.12" transform="translate(32.893 282.156)" fill="#fff" stroke="#192135" stroke-linecap="round" stroke-linejoin="round" stroke-width="1"/>
        <path id="Path_487" data-name="Path 487" d="M105,198.757l131.341,28.056L105,176.96" transform="translate(88.776 172.708)" fill="#fff" stroke="#192135" stroke-linecap="round" stroke-linejoin="round" stroke-width="1"/>
        <rect id="Rectangle_195" data-name="Rectangle 195" width="38.579" height="100.267" transform="translate(46.147 294.105)" fill="#8054e7" stroke="#003c7a" stroke-linecap="round" stroke-linejoin="round" stroke-width="1"/>
        <rect id="Rectangle_196" data-name="Rectangle 196" width="4.825" height="100.267" transform="translate(183.546 294.105)" fill="none" stroke="#192135" stroke-linecap="round" stroke-linejoin="round" stroke-width="1"/>
        <rect id="Rectangle_197" data-name="Rectangle 197" width="4.825" height="8.56" rx="2.412" transform="translate(183.546 357.642)" fill="#bdd4ec" stroke="#192135" stroke-linecap="round" stroke-linejoin="round" stroke-width="1"/>
        <line id="Line_7" data-name="Line 7" x2="75.977" transform="translate(96.798 296.483)" fill="#fff" stroke="#192135" stroke-linecap="round" stroke-linejoin="round" stroke-width="1"/>
        <line id="Line_8" data-name="Line 8" x2="75.977" transform="translate(96.798 307.223)" fill="#fff" stroke="#192135" stroke-linecap="round" stroke-linejoin="round" stroke-width="1"/>
        <line id="Line_9" data-name="Line 9" x2="75.977" transform="translate(96.798 317.963)" fill="#fff" stroke="#192135" stroke-linecap="round" stroke-linejoin="round" stroke-width="1"/>
        <line id="Line_10" data-name="Line 10" x2="75.977" transform="translate(96.798 328.703)" fill="#fff" stroke="#192135" stroke-linecap="round" stroke-linejoin="round" stroke-width="1"/>
        <line id="Line_11" data-name="Line 11" x2="75.977" transform="translate(96.798 354.978)" fill="#fff" stroke="#192135" stroke-linecap="round" stroke-linejoin="round" stroke-width="1"/>
        <line id="Line_12" data-name="Line 12" x2="75.977" transform="translate(96.798 364.51)" fill="#fff" stroke="#192135" stroke-linecap="round" stroke-linejoin="round" stroke-width="1"/>
        <line id="Line_13" data-name="Line 13" x2="75.977" transform="translate(96.798 374.061)" fill="#fff" stroke="#192135" stroke-linecap="round" stroke-linejoin="round" stroke-width="1"/>
        <line id="Line_14" data-name="Line 14" x2="75.977" transform="translate(96.798 393.877)" fill="#fff" stroke="#192135" stroke-linecap="round" stroke-linejoin="round" stroke-width="1"/>
        <ellipse id="Ellipse_14" data-name="Ellipse 14" cx="33.494" cy="14.862" rx="33.494" ry="14.862" transform="translate(594.081 642.108)" fill="#e9e2f8"/>
        <path id="Path_488" data-name="Path 488" d="M305.872,228.267c3.584,1.546,12.352,1.347,12.372,1.347s-1.882-5.687-2-5.945c-2-3.963-8.008-10.562-12.953-9.908a6.009,6.009,0,0,0-3.986,2.643,5.893,5.893,0,0,0-.759,4.689C299.306,224.423,302.829,226.94,305.872,228.267Z" transform="translate(282.523 208.788)" fill="#6733e3"/>
        <path id="Path_489" data-name="Path 489" d="M420.251,211.2c-4.965-.535-10.851,6.2-12.673,10.245-.16.337-2,6.064-1.882,6.064h.1c-.941,1.07-2,2.2-2.983,3.468-2,2.378-4.124,5.053-6.286,8.144a99.646,99.646,0,0,0-6.507,10.265,74.19,74.19,0,0,0-5.566,12.4v-5.667c-.561-4.379-4.264-12.5-9.189-13.4a6.05,6.05,0,0,0-4.615,1.288,5.925,5.925,0,0,0-2.192,4.221c-.3,3.468,2.262,6.955,4.745,9.155,2.8,2.477,10.571,4.875,11.191,5.053a102.188,102.188,0,0,0-3.283,13.435c-.48,2.636-.881,5.33-1.241,7.926v-2.517c-.581-4.379-4.284-12.5-9.189-13.415a6.05,6.05,0,0,0-4.628,1.28,5.925,5.925,0,0,0-2.2,4.229c-.28,3.488,2.262,6.955,4.745,9.155s9.109,4.4,10.871,4.954c-.14,1.05-.28,2.081-.4,3.111-.6,4.954-1.181,9.908-1.882,14.743-.26,1.7-.561,3.389-.881,5.053v-2.18c-.561-4.379-4.264-12.5-9.189-13.415a6.05,6.05,0,0,0-4.615,1.288,5.925,5.925,0,0,0-2.192,4.221c-.3,3.468,2.262,6.955,4.745,9.155s8.469,4.181,10.551,4.855c-.38,1.7-.741,3.408-1.161,5.053-.32,1.11-.561,2.2-.941,3.289s-.7,2.18-1.061,3.25c-.741,1.982-1.5,4.161-2.282,6.123-.541,1.387-1.081,2.675-1.6,3.963.26-1.7.721-5.033.721-5.311a22.531,22.531,0,0,0-3.063-11.057,9.257,9.257,0,0,0,0-1.288A5.936,5.936,0,0,0,363.7,314.3a6.056,6.056,0,0,0-4.709-.927c-4.845,1.288-7.888,9.67-8.128,14.069,0,.258.16,3.111.3,4.894-.24-1.05-.46-1.982-.721-3.111-.521-2.12-1.081-4.221-1.682-6.48-.34-1.07-.661-2.16-1-3.27s-.781-2.219-1.161-3.329c-.961-2.6-2-5.152-3.223-7.728,1.882-.436,8.489-2.1,11.131-4.122s5.446-5.291,5.426-8.778a5.8,5.8,0,0,0-1.852-4.384,5.923,5.923,0,0,0-4.535-1.561c-4.965.515-9.269,8.362-10.17,12.682,0,.258-.34,3.448-.48,5.192-.7-1.546-1.4-3.091-2.182-4.617-2.2-4.419-4.6-8.838-6.967-13.237-.721-1.347-1.421-2.715-2.122-4.062.661-.139,8.569-1.982,11.532-4.221,2.643-1.982,5.446-5.291,5.426-8.778a5.8,5.8,0,0,0-1.852-4.384,5.923,5.923,0,0,0-4.535-1.561c-4.965.535-9.269,8.362-10.17,12.682,0,.317-.48,4.894-.541,6.064-1.562-2.992-3.083-5.945-4.485-8.977a102.035,102.035,0,0,1-4.865-12.464c.3,0,8.569-1.982,11.612-4.241,2.643-1.982,5.446-5.291,5.406-8.778a5.916,5.916,0,0,0-1.885-4.335,6.042,6.042,0,0,0-4.482-1.61c-4.965.535-9.29,8.362-10.19,12.682,0,.337-.5,5.251-.521,6.163a2.807,2.807,0,0,0-.26-.753,72.382,72.382,0,0,1-2.523-13.158c-.28-2.457-.42-4.815-.48-7.114,1.562-.178,8.749-1.13,11.732-2.913s6.006-4.676,6.346-8.144a5.9,5.9,0,0,0-1.376-4.537,6.028,6.028,0,0,0-4.289-2.1c-5.005,0-10.15,7.292-11.532,11.493,0,.238-.581,2.635-.921,4.4v-3.111c0-3.745.24-7.153.48-10.185.14-1.724.32-3.289.5-4.736,1.441-.991,7.207-5.013,8.989-7.926s3.143-6.876,1.862-10.126a5.973,5.973,0,0,0-3.345-3.415,6.063,6.063,0,0,0-4.8.105c-4.424,2.279-5.586,11.117-4.865,15.476,0,.376,1.742,6.143,1.822,6.083h0c-.2,1.407-.38,2.893-.561,4.538-.3,3.032-.621,6.46-.7,10.205a104.761,104.761,0,0,0,.28,12.127,74.6,74.6,0,0,0,2.282,13.376.474.474,0,0,0,0,.159c-.781-1.229-3.1-4.558-3.3-4.8-2.923-3.349-10.531-8.1-15.135-6.163a5.846,5.846,0,0,0-3.192,3.57,5.774,5.774,0,0,0,.569,4.733c1.7,3.072,5.766,4.577,9.069,5.053,3.7.535,11.532-1.7,12.152-1.982a103.848,103.848,0,0,0,4.745,13c1.081,2.477,2.242,4.914,3.444,7.371-.721-1.05-1.361-1.982-1.462-2.081-2.923-3.329-10.551-8.085-15.135-6.163a5.964,5.964,0,0,0-3.146,3.595,5.891,5.891,0,0,0,.524,4.728c1.7,3.052,5.766,4.558,9.049,5.033s10.01-1.288,11.832-1.783c.46.931.921,1.863,1.4,2.794,2.262,4.458,4.545,8.917,6.647,13.336.741,1.565,1.4,3.131,2,4.7l-1.261-1.8c-2.923-3.329-10.551-8.085-15.135-6.163a5.963,5.963,0,0,0-3.146,3.595,5.891,5.891,0,0,0,.524,4.728c1.7,3.052,5.766,4.558,9.049,5.033s9.41-1.13,11.512-1.7c.641,1.625,1.3,3.25,1.842,4.835.36,1.11.781,2.14,1.061,3.27s.621,2.2.921,3.289c.521,2.1,1.061,4.28,1.5,6.361.34,1.447.6,2.814.9,4.2-.721-1.566-2.2-4.6-2.342-4.835-2.382-3.725-9.189-9.571-14.014-8.342a5.852,5.852,0,0,0-3.7,3.048,5.753,5.753,0,0,0-.149,4.759c1.2,3.289,4.985,5.39,8.168,6.361,3.5,1.05,11.271,0,12.252,0,.46,2.3.9,4.538,1.261,6.658,1.3,7.332,2.122,13.495,2.623,17.834a16.393,16.393,0,0,0,.24,2.1H337.848l4.825,93.332a13.434,13.434,0,0,0,13.474,12.662h0a13.413,13.413,0,0,0,13.454-12.66l4.825-93.335H360.411l.32-.654c2-3.963,4.585-9.65,7.448-16.606.921-2.2,1.862-4.577,2.783-7.015.941.2,8.629,1.744,12.212.931,3.243-.713,7.187-2.536,8.649-5.727a5.889,5.889,0,0,0,.147-4.746,5.977,5.977,0,0,0-3.411-3.339c-4.745-1.566-12.012,3.745-14.615,7.312-.16.2-1.6,2.655-2.483,4.241.38-1.011.761-1.982,1.141-3.012.741-1.982,1.441-4.082,2.2-6.3.32-1.07.661-2.16.981-3.27s.6-2.279.9-3.428c.641-2.675,1.161-5.41,1.622-8.184,1.8.654,8.248,2.873,11.592,2.635s7.488-1.447,9.41-4.359a5.911,5.911,0,0,0-2-8.481c-4.444-2.279-12.413,1.982-15.556,5.013-.2.2-2.222,2.675-3.3,3.963.26-1.665.541-3.329.761-5.033.6-4.894,1.081-9.908,1.562-14.842l.48-4.558c.641.238,8.248,3.052,12.012,2.794,3.323-.238,7.508-1.447,9.429-4.379a5.794,5.794,0,0,0-2-8.461c-4.424-2.279-12.393,1.982-15.556,5.013-.22.238-3.123,3.824-3.824,4.756.36-3.329.761-6.658,1.261-9.908a105.476,105.476,0,0,1,2.883-13.059c.3.1,8.228,3.071,12.012,2.794,3.323-.218,7.488-1.427,9.41-4.359a5.911,5.911,0,0,0-2-8.481c-4.445-2.259-12.393,1.982-15.556,5.033-.26.238-3.363,4.1-3.884,4.835a3.218,3.218,0,0,1,.2-.753,75.471,75.471,0,0,1,5.225-12.365c1.141-2.2,2.362-4.241,3.584-6.2,1.4.713,8.008,3.844,11.392,3.963s7.608-.614,9.85-3.329a5.905,5.905,0,0,0-1.041-8.64c-4.144-2.735-12.533.555-16.016,3.309-.18.139-2,1.882-3.2,3.151.561-.872,1.121-1.783,1.682-2.616,2.1-3.111,4.2-5.826,6.006-8.224,1.081-1.367,2.1-2.556,3.043-3.686,1.762,0,8.829-.238,12.012-1.684s6.467-3.963,7.187-7.411a5.9,5.9,0,0,0-.982-4.661,6.017,6.017,0,0,0-4.123-2.453Zm-55,132.052c-3,6.836-5.766,12.424-7.748,16.289-.4.793-.761,1.466-1.081,2.12h-.34c-.1-.773-.2-1.585-.34-2.517-.6-4.359-1.561-10.562-3.043-17.953-.461-2.318-1-4.815-1.582-7.352a66.372,66.372,0,0,0,6.827-3.19,43.057,43.057,0,0,0,10.01,6.361C367.037,339.192,366.156,341.293,365.255,343.255Z" transform="translate(282.98 196.307)" fill="#6733e3"/>
        <path id="Path_490" data-name="Path 490" d="M352.456,232.872s1.582-5.766,1.642-6.143c.621-4.379-.8-13.177-5.285-15.337a6.063,6.063,0,0,0-4.776.046,5.968,5.968,0,0,0-3.232,3.481c-1.2,3.289.32,7.312,2.122,10.066C345.029,228.274,352.436,232.872,352.456,232.872Z" transform="translate(324.629 206.046)" fill="#6733e3"/>
      </g>
    </g>
    <path id="Union_2" data-name="Union 2" d="M11.309,14.359a3.081,3.081,0,0,1-2.294-1.022,3.766,3.766,0,0,1-.9-2.437,2.454,2.454,0,0,1-.872-1.581.355.355,0,1,1,.7-.114,1.649,1.649,0,0,0,.9,1.31,1.5,1.5,0,0,0,1.905-.585,1.626,1.626,0,0,0,.213-.838q0-.042,0-.083a2.305,2.305,0,0,1-1.61-2.063c.008-.886.89-1.115,1.976-1.106s1.964.255,1.956,1.141a2.314,2.314,0,0,1-1.61,2.025q0,.043,0,.087a1.608,1.608,0,0,0,.213.837,1.509,1.509,0,0,0,1.937.57l.059-.03a.356.356,0,0,1,.19-.125A1.722,1.722,0,0,0,14.678,9.2a.356.356,0,0,1,.7.114,2.46,2.46,0,0,1-.873,1.581,3.766,3.766,0,0,1-.9,2.436,3.078,3.078,0,0,1-2.292,1.022Zm6.63-3.6a1.609,1.609,0,0,1-1.286-1.3,8.563,8.563,0,0,0-2.817-5.438,1.591,1.591,0,0,1-.48-1.811C14.487-.683,19.92-1.3,22.1,3.839c1.524,3.663-.49,7-3.4,7A4,4,0,0,1,17.939,10.761ZM.522,3.839C2.7-1.3,8.131-.683,9.261,2.215a1.592,1.592,0,0,1-.479,1.811A8.565,8.565,0,0,0,5.964,9.465a1.608,1.608,0,0,1-1.286,1.3,4,4,0,0,1-.757.074C1.013,10.835-1,7.5.522,3.839Z" transform="matrix(0.998, 0.07, -0.07, 0.998, 375.219, 388.402)" fill="#dbdbdb"/>
  </g>
</svg>
