<svg xmlns="http://www.w3.org/2000/svg" xmlns:xlink="http://www.w3.org/1999/xlink" width="60" height="60" viewBox="0 0 60 60">
  <defs>
    <filter id="Rectangle_299" x="-1" y="4" width="62" height="62" filterUnits="userSpaceOnUse">
      <feOffset dy="5" input="SourceAlpha"/>
      <feGaussianBlur stdDeviation="5" result="blur"/>
      <feFlood flood-color="#0e1b8b" flood-opacity="0.251"/>
      <feComposite operator="in" in2="blur"/>
      <feComposite in="SourceGraphic"/>
    </filter>
    <clipPath id="clip-linkedin">
      <rect width="60" height="60"/>
    </clipPath>
  </defs>
  <g id="linkedin" clip-path="url(#clip-linkedin)">
    <g id="Group_548" data-name="Group 548" transform="translate(14 14)">
      <g transform="matrix(1, 0, 0, 1, -14, -14)" filter="url(#Rectangle_299)">
        <rect id="Rectangle_299-2" data-name="Rectangle 299" width="32" height="32" rx="16" transform="translate(14 14)" fill="#fff"/>
      </g>
      <g id="linkedin-2" data-name="linkedin" transform="translate(1.761 1.859)">
        <g id="Group_547" data-name="Group 547" transform="translate(7 6)">
          <rect id="Rectangle_301" data-name="Rectangle 301" width="3" height="11" transform="translate(0.239 4.141)" fill="#007bb5"/>
          <path id="Path_1666" data-name="Path 1666" d="M19.032,11c-2.245,0-2.631.819-2.814,1.609V11H13V22.261h3.217V15.826a1.446,1.446,0,0,1,1.609-1.609,1.452,1.452,0,0,1,1.609,1.609v6.435h3.217V16.63C22.652,13.413,22.233,11,19.032,11Z" transform="translate(-8.174 -6.978)" fill="#007bb5"/>
          <circle id="Ellipse_94" data-name="Ellipse 94" cx="1.5" cy="1.5" r="1.5" transform="translate(0.239 0.141)" fill="#007bb5"/>
        </g>
      </g>
    </g>
  </g>
</svg>
