<svg xmlns="http://www.w3.org/2000/svg" xmlns:xlink="http://www.w3.org/1999/xlink" width="500" height="240" viewBox="0 0 500 240">
  <defs>
    <clipPath id="clip-mgplogo">
      <rect width="500" height="240"/>
    </clipPath>
  </defs>
  <g id="mgplogo" clip-path="url(#clip-mgplogo)">
    <g id="Group_532" data-name="Group 532" transform="translate(1354 175)">
      <path id="Path_582" data-name="Path 582" d="M19.833-197.888a10.7,10.7,0,0,1-8.623-4.461A36.995,36.995,0,0,1,5.277-214.3a100.059,100.059,0,0,1-3.639-17.126Q.372-241.062-.1-251.417t-.079-20.631q.4-10.275,1.266-18.958A139.177,139.177,0,0,1,3.3-305.982q1.345-6.293,2.769-8.682a7.657,7.657,0,0,1,4.035-3.107,15.663,15.663,0,0,1,5.933-.956,20.513,20.513,0,0,1,6.329,1.2,15.619,15.619,0,0,1,5.3,3.027,9.251,9.251,0,0,1,2.848,4.779,9.219,9.219,0,0,1-1.028,6.373q15.506-8.762,26.661-9.479t18.275,3.983a27.6,27.6,0,0,1,10.522,13.3,47.459,47.459,0,0,1,3.244,18.4,59.011,59.011,0,0,1-3.639,19.356,44.2,44.2,0,0,1-9.889,16.09,31.4,31.4,0,0,1-15.585,8.683Q49.9-230.866,38.187-235.8a112.835,112.835,0,0,1-.316,14.816,43.38,43.38,0,0,1-2.69,12.028,19.075,19.075,0,0,1-5.775,8.125A14.946,14.946,0,0,1,19.833-197.888Zm18.2-52.733q5.854,4.62,10.126,5.1a9.094,9.094,0,0,0,6.962-1.673,11.5,11.5,0,0,0,3.8-6.054,23.843,23.843,0,0,0,.791-8.285,23.436,23.436,0,0,0-2.136-8.284,14.538,14.538,0,0,0-4.984-6.054,11.753,11.753,0,0,0-7.832-1.752q-4.668.4-10.522,4.859.475,3.186.87,5.5t.87,4.7q.475,2.39.949,5.178T38.029-250.621ZM147.68-279.456q.158-2.071.158-5.417t-.316-6.691a45.579,45.579,0,0,0-.949-6.054,6.42,6.42,0,0,0-1.74-3.585q-1.108-.877-2.532.637t-3.323,6.611a4.615,4.615,0,0,1-2.373,2.788,9.126,9.126,0,0,1-3.8.956,19.783,19.783,0,0,1-4.272-.319,13.926,13.926,0,0,1-3.8-1.194q-5.221-2.39-7.2-5.417a9.3,9.3,0,0,1-1.661-6.133,11.1,11.1,0,0,1,2.69-5.974,22.266,22.266,0,0,1,6.092-5.019,33.482,33.482,0,0,1,8.228-3.345,28.459,28.459,0,0,1,9.256-.876,49.8,49.8,0,0,1,12.421,2.708,36.828,36.828,0,0,1,10.838,5.736,33.619,33.619,0,0,1,8.782,11.55,62.339,62.339,0,0,1,4.984,15.454,97.063,97.063,0,0,1,1.661,17.206,92.052,92.052,0,0,1-1.345,16.887,72.187,72.187,0,0,1-4.035,14.5,28.453,28.453,0,0,1-6.25,9.957q-1.424,1.434-4.984,2.071a21.824,21.824,0,0,1-7.2.08,14.081,14.081,0,0,1-6.408-2.628q-2.769-2.072-2.769-6.373-14.082,2.868-24.288.956T106.7-237a29.188,29.188,0,0,1-9.731-11.072A25.291,25.291,0,0,1,94.2-260.5,27.681,27.681,0,0,1,99.263-275a32.241,32.241,0,0,1,12.262-10.833,29.918,29.918,0,0,1,16.93-2.868Q137.87-287.741,147.68-279.456Zm-.633,21.348q-2.848-4.3-5.617-5.576a6.362,6.362,0,0,0-5.063-.4,9,9,0,0,0-4.035,3.266A15.954,15.954,0,0,0,129.8-255.4a15.03,15.03,0,0,0-.316,6.134,10.177,10.177,0,0,0,2.452,5.337,10.268,10.268,0,0,0,5.775,3.027q3.8.8,9.81-.8,0-4.142-.158-7.726T147.047-258.109Zm58.544-46.678q6.487-2.39,10.522-1.513a9.556,9.556,0,0,1,6.092,3.823,16.353,16.353,0,0,1,2.611,7.488,48.563,48.563,0,0,1,.158,9.638,96.374,96.374,0,0,1-1.345,10.2q-.949,5.1-1.74,8.922,8.07-21.507,16.772-33.376t17.088-16.25q8.386-4.381,15.9-2.39a27.383,27.383,0,0,1,13.291,8.284,44.989,44.989,0,0,1,9.1,15.772,61.89,61.89,0,0,1,3.4,20.153,61.94,61.94,0,0,1-3.718,21.348,52.371,52.371,0,0,1-12.5,19.436,15.27,15.27,0,0,1-7.437,4.3,20.107,20.107,0,0,1-8.149.239,19.7,19.7,0,0,1-7.595-3.107,18.367,18.367,0,0,1-5.617-5.815,15.278,15.278,0,0,1-2.136-7.727,16.429,16.429,0,0,1,2.769-8.922,58.8,58.8,0,0,0,6.329-14.02,74.946,74.946,0,0,0,2.69-12.745,31.619,31.619,0,0,0-.079-9.32q-.712-3.584-2.136-3.584-4.589,0-8.386,4.062a49.144,49.144,0,0,0-7.12,10.2,131.384,131.384,0,0,0-6.25,13.382q-2.927,7.249-5.775,13.462a68.6,68.6,0,0,1-5.775,10.435q-2.927,4.221-6.25,4.381-10.918.478-17.326-3.823a25.018,25.018,0,0,1-9.335-11.232,39.127,39.127,0,0,1-2.927-15.373,63.085,63.085,0,0,1,1.978-16.011,48.466,48.466,0,0,1,5.459-13.223Q201.635-303.353,205.59-304.787Z" transform="translate(-1353.635 262.894)" fill="#041433"/>
      <path id="Path_576" data-name="Path 576" d="M425.944,507.71c-12.823,10.264-20.3,25.886-23.738,45.548a13.511,13.511,0,0,1-10.837,10.861c-27.8,5.329-48.944-24.7-35.018-57.981,18.329-43.07,64.112-37.875,73.63-13.6A13.279,13.279,0,0,1,425.944,507.71Z" transform="translate(-1396.525 -529.961)" fill="#041433"/>
      <path id="Path_577" data-name="Path 577" d="M1064.912,507.71c12.822,10.264,20.294,25.886,23.736,45.548a13.512,13.512,0,0,0,10.836,10.861c27.8,5.329,48.946-24.7,35.018-57.981-18.328-43.07-64.109-37.875-73.63-13.6A13.272,13.272,0,0,0,1064.912,507.71Z" transform="translate(-1992.905 -529.961)" fill="#041433"/>
      <path id="Path_578" data-name="Path 578" d="M884.424,801.452c-.073,7.423-7.577,17.416-16.729,17.336s-16.476-10.211-16.407-17.63,7.5-9.342,16.654-9.261S884.491,794.03,884.424,801.452Z" transform="translate(-1817.133 -798.966)" fill="#041433"/>
      <path id="Path_579" data-name="Path 579" d="M757.183,948.232a18.561,18.561,0,0,1-7.675-1.651c-5.881-2.664-9.775-8.15-10.965-15.432a2.966,2.966,0,0,1,.976-2.933,3,3,0,0,1,4.926,1.981c.859,5.264,3.538,9.161,7.544,10.971a12.687,12.687,0,0,0,16.051-4.9,13.523,13.523,0,0,0,1.8-7.015,19.765,19.765,0,0,0-.266-3.134,2.969,2.969,0,0,1,.98-2.933,3,3,0,0,1,4.923,1.992,25.745,25.745,0,0,1,.34,4.075,19.355,19.355,0,0,1-2.621,10.031A18.564,18.564,0,0,1,757.183,948.232Z" transform="translate(-1722.1 -909.081)" fill="#041433"/>
      <path id="Path_574" data-name="Path 574" d="M955.979,948.3a18.466,18.466,0,0,1-15.934-8.971,19.314,19.314,0,0,1-2.625-10.03,25.658,25.658,0,0,1,.341-4.075,2.978,2.978,0,0,1,1.853-2.481,3.009,3.009,0,0,1,3.069.489,2.968,2.968,0,0,1,.98,2.932,19.923,19.923,0,0,0-.266,3.135,13.439,13.439,0,0,0,1.8,7.009,12.756,12.756,0,0,0,16.328,4.772c2.724-1.324,6.2-4.28,7.267-10.841a3,3,0,0,1,5.9.953c-1.156,7.075-4.9,12.482-10.539,15.226A18.632,18.632,0,0,1,955.979,948.3Z" transform="translate(-1889.686 -909.123)" fill="#041433"/>
      <path id="Path_580" data-name="Path 580" d="M858.249,1020.527s-.414,14.393-5.939,19.187c-9.216-13.4-26.849-13.4-36.065,0L811.43,1028v-7.471l.779-1.591c6.961,3.672,15.822.889,19.866-7.1,1.487.011,2.974.011,4.415.011,4.117,8.115,13.211,10.85,20.211,6.887C857.622,1019.791,858.249,1020.527,858.249,1020.527Z" transform="translate(-1783.562 -984.44)" fill="#041433"/>
      <path id="Path_581" data-name="Path 581" d="M882.074,1120.564a23.1,23.1,0,0,1-34.2,0,18.774,18.774,0,0,1,34.2,0Z" transform="translate(-1814.257 -1066.824)" fill="#8054e7"/>
      <path id="Path_575" data-name="Path 575" d="M812.31,1065.729a26.03,26.03,0,0,1-19.329-8.562c-4.99-5.5-7.631-13.1-7.631-21.973a3,3,0,0,1,5.979,0c0,7.376,2.11,13.6,6.1,18a20.105,20.105,0,0,0,29.756,0c4-4.41,6.107-10.635,6.107-18.01a2.972,2.972,0,0,1,1.431-2.749,3.009,3.009,0,0,1,3.114,0,2.972,2.972,0,0,1,1.432,2.749c0,8.87-2.641,16.47-7.637,21.981A26.025,26.025,0,0,1,812.31,1065.729Z" transform="translate(-1761.592 -1001.443)" fill="#041433"/>
      <path id="Path_584" data-name="Path 584" d="M76.384-362.552V-377.8c0-2.219-2.433-4.223-5.081-4.223H56.989c-5.726,0-6.37,8.732,0,8.732H67.724v8.8a18.209,18.209,0,0,1-10.735,3.221c-9.376,0-16.39-6.441-16.39-17.033A17.064,17.064,0,0,1,57.633-395.33a15.118,15.118,0,0,1,10.091,4.509c4.294,3.793,10.592-2.576,6.227-6.871a23.446,23.446,0,0,0-16.318-6.3c-15.1,0-26.338,11.236-26.338,25.694,0,17.033,10.664,25.622,25.694,25.622a27.11,27.11,0,0,0,17.606-6.012A5.777,5.777,0,0,0,76.384-362.552Zm19.9-8.231h11.237l10.807,15.459c4.294,5.439,11.737.143,8.016-5.368l-9.519-11.594c15.173-6.083,11.451-30.417-6.728-30.417H91.056a4.278,4.278,0,0,0-4.294,4.366v40.652c0,6.3,9.519,6.083,9.519-.143Zm0-23.26h13.813c9.877,0,9.3,15.03,0,15.03H96.28Zm44.23,38.433,3.078-6.3H170l3.149,6.3c2.577,5.582,11.236,1.145,8.3-4.437L161.266-400.2c-1.789-3.936-6.942-3.793-8.875,0l-20.541,40.151a5.049,5.049,0,0,0,2.29,6.871C136.717-352.675,139.366-353.176,140.511-355.609Zm7.515-15.746,8.8-17.678,8.087,17.678Zm40.008,13.241a4.835,4.835,0,0,0,4.867,4.939c2.577,0,4.58-1.79,4.58-4.939v-9.447h11.952c9.3,0,17.678-6.3,17.678-17.606,0-11.953-8.374-18.179-17.678-18.179H192.9a4.924,4.924,0,0,0-4.867,4.939Zm21.4-36.214c4.8,0,8.588,4.151,8.588,9.161a8.817,8.817,0,0,1-8.588,8.66H197.48v-17.821Zm30.417,41.153a4.311,4.311,0,0,0,4.366-4.438v-15.673h23.332v15.673a4.7,4.7,0,0,0,4.867,4.438,4.37,4.37,0,0,0,4.437-4.438v-40.651a4.327,4.327,0,0,0-4.437-4.438,4.654,4.654,0,0,0-4.867,4.438v15.6H244.215v-15.6a4.269,4.269,0,0,0-4.366-4.438c-3.221,0-5.082,1.861-5.082,4.438v40.651C234.768-355.108,236.629-353.176,239.85-353.176Zm47.451-4.366c0,6.084,9.447,5.941,9.447,0v-40.866c0-6.083-9.447-5.869-9.447,0Zm43.371,4.867c5.94,0,11.952-.931,16.962-5.583,2.5-2.5,1.932-5.153.787-6.728a4.82,4.82,0,0,0-6.584-.858,16.666,16.666,0,0,1-11.165,4.58c-11.093,0-16.318-8.158-16.318-17.033,0-8.732,5.3-16.533,16.318-16.533,4.079,0,7.085.859,10.02,3.937a4.85,4.85,0,0,0,6.584.215,4.881,4.881,0,0,0-.215-6.942c-5.225-4.509-10.163-6.369-16.39-6.369-16.461,0-25.121,11.88-25.121,25.694S313.352-352.675,330.672-352.675Z" transform="translate(-1385.293 288.502)" fill="#8054e7"/>
      <path id="Path_585" data-name="Path 585" d="M-79.171-70.708c2.408,3.211,5.692,3.211,8.319,0l12.113-15.324v27c0,3.211,2.043,5.035,4.67,5.035,2.335,0,4.378-1.824,4.378-5.035v-41.082a4.735,4.735,0,0,0-8.318-3.211L-74.647-80.851-90.7-102.523c-1.24-1.386-2.481-2.627-4.6-2.627a4.854,4.854,0,0,0-4.378,5.035v41.082c0,3.211,2.043,5.035,4.378,5.035a5.04,5.04,0,0,0,5.254-5.035v-27Zm53.122-2.919V-58.6c0,6.348,10.289,6.348,9.632,0V-73.627L.657-97.926c3.794-4.889-4.159-10.216-8.027-4.889L-21.014-82.822l-13.426-19.993c-3.867-5.327-12.113.292-8.173,5.181Z" transform="translate(-1254.325 -69.85)" fill="#8054e7"/>
    </g>
  </g>
</svg>
