<svg xmlns="http://www.w3.org/2000/svg" xmlns:xlink="http://www.w3.org/1999/xlink" width="934" height="777" viewBox="0 0 934 777">
  <defs>
    <filter id="Rectangle_224" x="0" y="0" width="934" height="777" filterUnits="userSpaceOnUse">
      <feOffset dy="10" input="SourceAlpha"/>
      <feGaussianBlur stdDeviation="49.5" result="blur"/>
      <feFlood flood-color="#353a64" flood-opacity="0.349"/>
      <feComposite operator="in" in2="blur"/>
      <feComposite in="SourceGraphic"/>
    </filter>
  </defs>
  <g id="web" transform="translate(1697.5 -579.5)">
    <g transform="matrix(1, 0, 0, 1, -1697.5, 579.5)" filter="url(#Rectangle_224)">
      <rect id="Rectangle_224-2" data-name="Rectangle 224" width="637" height="480" rx="46" transform="translate(148.5 138.5)" fill="#fff"/>
    </g>
    <g id="undraw_experience_design_re_ca7l" transform="translate(-1552.265 717.968)">
      <path id="Path_1202" data-name="Path 1202" d="M636.295,37.618H.67a45.079,45.079,0,0,1,5.1-14.256A45.7,45.7,0,0,1,45.623,0H591.342a45.684,45.684,0,0,1,39.841,23.362A45.1,45.1,0,0,1,636.295,37.618Z" transform="translate(3.389)" fill="#e3e4fe"/>
      <path id="Path_1203" data-name="Path 1203" d="M733.567,453.766a1.253,1.253,0,0,1-1.257,1.256H471.117a1.253,1.253,0,0,1-1.257-1.256,1.222,1.222,0,0,1,.338-.855h94.764a44.044,44.044,0,0,0,5.936-.4H732.31A1.253,1.253,0,0,1,733.567,453.766Z" transform="translate(-529.469 24.979)" fill="#3f3d56"/>
      <path id="Path_1204" data-name="Path 1204" d="M499.914,211.8H123.9a6.331,6.331,0,1,1,0-12.662H499.914a6.331,6.331,0,1,1,0,12.662Z" transform="translate(9.961 10.993)" fill="#e3e4fe"/>
      <path id="Path_1205" data-name="Path 1205" d="M636.332,37.618a45.1,45.1,0,0,0-5.112-14.256A45.684,45.684,0,0,0,591.38,0H45.661A45.7,45.7,0,0,0,5.809,23.362,45.52,45.52,0,0,0,0,45.616V434.384A45.686,45.686,0,0,0,45.661,480H591.38a45.672,45.672,0,0,0,45.661-45.616V45.616a45.42,45.42,0,0,0-.708-8Zm-1.4,396.766a43.533,43.533,0,0,1-37.612,43.1,44.046,44.046,0,0,1-5.936.4H110.523A108.363,108.363,0,0,1,2.112,369.573V45.616A43.514,43.514,0,0,1,45.661,2.11H591.38A43.528,43.528,0,0,1,628.8,23.362a43.409,43.409,0,0,1,6.126,22.254Z" transform="translate(3.351 0)" fill="#041433"/>
      <g id="Group_482" data-name="Group 482" transform="translate(-59.608 174.408)">
        <path id="Path_1206" data-name="Path 1206" d="M586.839,217.076l3.574-13.093-16.084-5.951-1.787,11.9Z" transform="translate(-497.071 -165.435)" fill="#ffb6b6"/>
        <path id="Path_1207" data-name="Path 1207" d="M578.44,216.974l3.574-13.093-9.472-3.992,2.943,15.435Z" transform="translate(-488.672 -165.332)" opacity="0.1"/>
        <g id="Group_480" data-name="Group 480" transform="translate(79.036 47.899)">
          <path id="Path_1208" data-name="Path 1208" d="M583.627,327.734c3.072-1.826,3.234-7.216.362-12.039a14.052,14.052,0,0,0-4.581-4.8l-1.687-2.753-21.338-38.215s-9.34-36.042-13.143-40.4a10.54,10.54,0,0,0-9.3-3.331l-4.877,4.327,17.406,51.048,21.479,30.219L570.826,316a14.036,14.036,0,0,0,2.038,6.313c2.872,4.823,7.691,7.252,10.763,5.426Z" transform="translate(-525.812 -211.785)" fill="#ffb6b6"/>
          <path id="Path_1209" data-name="Path 1209" d="M562.7,212.535s-6.787-.262-11.069,5,18.151,64.63,18.151,64.63l18.272-.646Z" transform="translate(-551.088 -212.533)" fill="#8054e7"/>
        </g>
        <ellipse id="Ellipse_46" data-name="Ellipse 46" cx="16.679" cy="16.663" rx="16.679" ry="16.663" transform="translate(72.195 7.305)" fill="#ffb6b6"/>
        <path id="Path_1210" data-name="Path 1210" d="M520.656,419.27l11.318,27.97,6.552-6.546,2.383-12.5-9.53-11.9Z" transform="translate(-392.764 -153.386)" fill="#ffb6b6"/>
        <path id="Path_1211" data-name="Path 1211" d="M640.26,409.526l-11.319,13.093L634.3,433.33l11.914-1.785,5.956-16.663Z" transform="translate(-618.4 -153.76)" fill="#ffb6b6"/>
        <path id="Path_1212" data-name="Path 1212" d="M602.91,261.48l1.489,24.1-36.933-6.546,2.383-14.878Z" transform="translate(-505.695 -161.932)" fill="#ffb6b6"/>
        <path id="Path_1213" data-name="Path 1213" d="M569.277,285.242l-37.231-12.2s-13.7,27.375,1.191,44.634,64.335,115.453,64.335,115.453l14.892-7.141L591.02,363.5l-23.828-57.726,2.085-20.531Z" transform="translate(-470.275 -161.294)" fill="#041433"/>
        <path id="Path_1214" data-name="Path 1214" d="M620.008,305.753l-14.3,62.487-29.784,48.2,15.487,8.927,41.7-57.132,13.7-44.039Z" transform="translate(-557.045 -159.488)" fill="#041433"/>
        <path id="Path_1215" data-name="Path 1215" d="M511.075,425.429h10.317s12.038-4.761,14.859,0-12.588,18.264-12.588,18.264-21.524,12.087-24.5,11.492-4.17-7.737-4.17-7.737l-3.574-8.332,5.361,1.785s7.148-4.166,5.361-11.307l8.935-4.166Z" transform="translate(-357.568 -152.999)" fill="#041433"/>
        <path id="Path_1216" data-name="Path 1216" d="M632.9,423.937v-5.951l-6.926,5.951s-11.541,4.166-2.606,13.092,20.254,18.449,20.254,18.449,17.871,4.761,19.062-.6,0-7.523,0-7.523l-6.553-3.189L650.178,428.7l-9.531,1.19-7.744-5.951Z" transform="translate(-619.98 -153.293)" fill="#041433"/>
        <path id="Path_1217" data-name="Path 1217" d="M584.882,194.381l5.361-.6,9.829-9.819s8.935,4.761,8.935,1.19c0-16.663-10.127-16.068-18.466-17.258s-7.446-1.488-10.127,2.976c-1.226,2.041-5.659,3.273-5.659,3.273s-8.34-11.307-12.51,2.38,1.191,55.941-2.978,59.512,17.121,7.136,14.815-6.846-6.476-35.407-4.093-40.168,2.979-3.571,2.979-3.571c-2.953-1.2-4.882,20.011,6.251,21.05l.3-10.338s1.787-5.356,5.361-1.785Z" transform="translate(-501.071 -167.14)" fill="#041433"/>
        <path id="Path_1218" data-name="Path 1218" d="M603.059,212.788l-17.871-7.141L561.361,277.06l49.026-1.784,4.414-21.315s4.31-11.094.736-17.64-12.477-23.534-12.477-23.534Z" transform="translate(-511.802 -165.014)" fill="#8054e7"/>
        <g id="Group_481" data-name="Group 481" transform="translate(39.118 43.46)">
          <path id="Path_1219" data-name="Path 1219" d="M604.947,331.613c3.562.306,6.838-3.979,7.319-9.571a14.033,14.033,0,0,0-.92-6.569l.236-3.219,4.964-43.477s9.24-35.563,8.693-41.319-1.41-7.283-1.41-7.283l-6.487.676-15.647,51.613-.183,37.062-.115,5.093a14.036,14.036,0,0,0-2.028,6.316c-.481,5.591,2.017,10.372,5.578,10.677Z" transform="translate(-599.309 -207.673)" fill="#ffb6b6"/>
          <path id="Path_1220" data-name="Path 1220" d="M624.907,211.152s-5.361-4.166-11.914-2.38-22.967,63.082-22.967,63.082l15.223,10.117,19.658-70.819Z" transform="translate(-589.149 -208.327)" fill="#8054e7"/>
        </g>
      </g>
      <path id="Path_1221" data-name="Path 1221" d="M300.43,309.84H228.97a7.915,7.915,0,0,1-7.909-7.9V294.8a7.914,7.914,0,0,1,7.909-7.9h71.46a7.914,7.914,0,0,1,7.909,7.9v7.14A7.915,7.915,0,0,1,300.43,309.84Z" transform="translate(15.78 15.837)" fill="#8054e7"/>
      <path id="Path_1222" data-name="Path 1222" d="M560.43,88.711H488.97a7.915,7.915,0,0,1-7.909-7.9V73.67a7.914,7.914,0,0,1,7.909-7.9h71.46a7.914,7.914,0,0,1,7.909,7.9v7.14A7.915,7.915,0,0,1,560.43,88.711Z" transform="translate(30.398 3.63)" fill="#8054e7"/>
      <path id="Path_1223" data-name="Path 1223" d="M400.826,310.4h-71.46a8.443,8.443,0,0,1-8.437-8.429v-7.14a8.442,8.442,0,0,1,8.437-8.428h71.46a8.442,8.442,0,0,1,8.437,8.428v7.14A8.443,8.443,0,0,1,400.826,310.4Zm-71.46-21.887a6.328,6.328,0,0,0-6.325,6.318v7.14a6.329,6.329,0,0,0,6.325,6.319h71.46a6.329,6.329,0,0,0,6.325-6.319v-7.14a6.328,6.328,0,0,0-6.325-6.318Z" transform="translate(21.395 15.809)" fill="#8054e7"/>
      <path id="Path_1224" data-name="Path 1224" d="M499.914,180.8H123.9a6.331,6.331,0,1,1,0-12.662H499.914a6.331,6.331,0,1,1,0,12.662Z" transform="translate(9.961 9.281)" fill="#e3e4fe"/>
      <path id="Path_1225" data-name="Path 1225" d="M103.757,83.3H56.227a6.331,6.331,0,1,1,0-12.662h47.53a6.331,6.331,0,1,1,0,12.662Z" transform="translate(6.156 3.899)" fill="#e3e4fe"/>
      <path id="Path_1226" data-name="Path 1226" d="M372.757,83.3h-47.53a6.331,6.331,0,1,1,0-12.662h47.53a6.331,6.331,0,1,1,0,12.662Z" transform="translate(21.28 3.899)" fill="#e3e4fe"/>
      <path id="Path_1227" data-name="Path 1227" d="M457.757,83.3h-47.53a6.331,6.331,0,1,1,0-12.662h47.53a6.331,6.331,0,1,1,0,12.662Z" transform="translate(26.059 3.899)" fill="#e3e4fe"/>
      <path id="Path_1228" data-name="Path 1228" d="M412.031,242.8H202.9a6.331,6.331,0,1,1,0-12.662H412.031a6.331,6.331,0,1,1,0,12.662Z" transform="translate(14.403 12.704)" fill="#e3e4fe"/>
      <g id="Group_483" data-name="Group 483" transform="translate(204.36 386.351)">
        <path id="Path_1229" data-name="Path 1229" d="M421.5,373.8H194.141a3.828,3.828,0,1,1,0-7.656H421.5a3.828,3.828,0,1,1,0,7.656Z" transform="translate(-190.309 -366.14)" fill="#e3e4fe"/>
        <path id="Path_1230" data-name="Path 1230" d="M368.36,392.541H241.908a3.828,3.828,0,1,1,0-7.656H368.36a3.828,3.828,0,1,1,0,7.656Z" transform="translate(-187.623 -365.105)" fill="#e3e4fe"/>
      </g>
      <path id="Path_1231" data-name="Path 1231" d="M423.5,21.8H196.141a3.828,3.828,0,1,1,0-7.656H423.5a3.828,3.828,0,1,1,0,7.656Z" transform="translate(14.164 0.781)" fill="#fff"/>
      <path id="Path_1232" data-name="Path 1232" d="M440.99,9.962l-1.441,1.546,6.491,6.028H426.328a1.055,1.055,0,1,0,0,2.11h19.716l-6.5,6.03,1.441,1.546,9.291-8.629L440.99,9.962Z" transform="translate(27.262 0.55)" fill="#8054e7"/>
    </g>
  </g>
</svg>
