<svg xmlns="http://www.w3.org/2000/svg" xmlns:xlink="http://www.w3.org/1999/xlink" width="500" height="240" viewBox="0 0 500 240">
  <defs>
    <clipPath id="clip-ygp">
      <rect width="500" height="240"/>
    </clipPath>
  </defs>
  <g id="ygp" clip-path="url(#clip-ygp)">
    <path id="Path_19" data-name="Path 19" d="M21.12-14.94a32.091,32.091,0,0,1-6.15.24,22.031,22.031,0,0,1-5.91-1.2,7.8,7.8,0,0,1-3.48-2.34,13.432,13.432,0,0,1-2.22-3.69,21.821,21.821,0,0,1-1.26-4.5,44.782,44.782,0,0,1-.57-4.8q-.15-2.37-.18-4.56t-.09-3.87a38.519,38.519,0,0,1,.18-4.8,2.111,2.111,0,0,1,.63-1.44,2.619,2.619,0,0,1,1.53-.48q.6,0,1.17.03t1.11.03q1.02,0,2.01.06a11.315,11.315,0,0,0,2.01-.06,3.219,3.219,0,0,1,2.1.48,2.921,2.921,0,0,1,.96,1.92,15.879,15.879,0,0,1,.15,1.68q.03.84.03,1.68.06,1.8,0,4.23t.06,4.29a11.355,11.355,0,0,0,.78,3.96,4.727,4.727,0,0,0,1.56,2.1,2.449,2.449,0,0,0,1.92.39,3.386,3.386,0,0,0,1.86-1.17,7.834,7.834,0,0,0,1.41-2.58,11.385,11.385,0,0,0,.57-3.78q0-.96-.06-2.4t-.12-2.97q-.06-1.53-.12-2.97t-.12-2.46a1.821,1.821,0,0,1,.543-1.65,3.051,3.051,0,0,1,1.388-.57q1.387-.12,3.105-.21a17.267,17.267,0,0,1,3.106.09,3.142,3.142,0,0,1,1.959.66,3.807,3.807,0,0,1,1.056,1.53,7.163,7.163,0,0,1,.452,2.01q.09,1.08.09,2.04v10.95q0,5.73-.12,11.01a30.388,30.388,0,0,1-.633,4.86,21.078,21.078,0,0,1-1.6,4.68A15.614,15.614,0,0,1,18.24.96,22.488,22.488,0,0,1,9.9.96,4.974,4.974,0,0,1,7.35-.21,4.37,4.37,0,0,1,6.3-2.76a14.516,14.516,0,0,1-.27-2.52,23.291,23.291,0,0,1,.09-2.64A2.688,2.688,0,0,1,8.7-10.68a7.954,7.954,0,0,1,1.53-.09q.75.03,1.53.03,1.38-.06,2.79-.03a18.5,18.5,0,0,0,2.79-.15Q20.46-11.46,21.12-14.94Zm60-9.24a37.614,37.614,0,0,1-1.05,9.24,27.417,27.417,0,0,1-3.33,7.8,18.707,18.707,0,0,1-5.1,5.64A16.553,16.553,0,0,1,66.81.84a14.132,14.132,0,0,1-4.98.54A13.713,13.713,0,0,1,56.97.09,17.085,17.085,0,0,1,52.5-3a22.082,22.082,0,0,1-4.17-5.55,26.337,26.337,0,0,1-2.37-6.51,32.742,32.742,0,0,1-.72-10.38A29.914,29.914,0,0,1,48-35.4a29.164,29.164,0,0,1,2.73-4.26,20.273,20.273,0,0,1,3.51-3.54,16.606,16.606,0,0,1,4.89-2.55,13.454,13.454,0,0,1,5.07-.63,13.918,13.918,0,0,1,4.95,1.32,17.547,17.547,0,0,1,4.59,3.18,20.679,20.679,0,0,1,4.2,5.58,27.484,27.484,0,0,1,2.34,6.6q.36,1.62.54,3.12T81.12-24.18ZM56.7-21.84a13.592,13.592,0,0,0,.24,3.57,13.749,13.749,0,0,0,1.2,3.51,13.451,13.451,0,0,0,2.4,3.6,4.5,4.5,0,0,0,3.15,1.47,4.164,4.164,0,0,0,3.09-1.35q.54-.48,1.05-1.02a4.375,4.375,0,0,0,.81-1.2,18.285,18.285,0,0,0,.06-17.52,5.427,5.427,0,0,0-.99-1.53q-.63-.69-1.35-1.35a4.137,4.137,0,0,0-2.52-.99,4.679,4.679,0,0,0-2.64.81,9.49,9.49,0,0,0-1.5,1.47,10.6,10.6,0,0,0-1.14,1.71A17.334,17.334,0,0,0,56.7-21.84ZM106.98-36.3q-.06,3.3-.18,6.51t0,6.51a16.767,16.767,0,0,0,.45,5.4,10.715,10.715,0,0,0,1.77,3.75,6.557,6.557,0,0,0,2.64,2.1,5.842,5.842,0,0,0,3,.45,5.886,5.886,0,0,0,2.88-1.23,7.881,7.881,0,0,0,2.28-2.91,20.831,20.831,0,0,0,1.65-5.94,66.273,66.273,0,0,0,.63-7.38q.12-3.84-.03-7.47t-.27-6.21a2.935,2.935,0,0,1,2.4-3.3,12.491,12.491,0,0,1,6.42.12,3.541,3.541,0,0,1,1.62.87,2.622,2.622,0,0,1,.78,1.65q.54,4.2.87,9.15a74.783,74.783,0,0,1,0,9.93,54.027,54.027,0,0,1-1.5,9.63,27.181,27.181,0,0,1-3.51,8.25A18.24,18.24,0,0,1,122.79-.6a18.2,18.2,0,0,1-9.21,2.28,19.247,19.247,0,0,1-6.69-.96,15.574,15.574,0,0,1-5.07-2.88,17.858,17.858,0,0,1-3.66-4.35,24.2,24.2,0,0,1-2.4-5.43,36.9,36.9,0,0,1-1.38-6.27q-.42-3.21-.57-6.45t-.12-6.48q.03-3.24.03-6.3,0-.84.03-2.19a14.423,14.423,0,0,1,.3-2.64,8.98,8.98,0,0,1,.78-2.28,2.064,2.064,0,0,1,1.53-1.17,18.2,18.2,0,0,1,3.9-.42,26.4,26.4,0,0,1,3.96.3,3.366,3.366,0,0,1,2.16,1.11,4.347,4.347,0,0,1,.66,2.43q.06,1.5.03,2.97t-.03,3.03Zm58.44,21.72a8.317,8.317,0,0,1,.84.84,3.638,3.638,0,0,0,.84.72q1.2.84,2.43,1.56t2.55,1.44a9.437,9.437,0,0,0,1.44.69q.72.27,1.44.57a4.181,4.181,0,0,1,1.8,1.35,3.928,3.928,0,0,1,.3,2.25,7.927,7.927,0,0,1-1.5,4.32,4.151,4.151,0,0,1-4.2,1.8,12.7,12.7,0,0,1-3.72-.93,11.048,11.048,0,0,1-3.24-2.07q-1.38-1.26-2.64-2.61t-2.52-2.67q-.42-.48-.78-.93a3.548,3.548,0,0,0-.96-.81q.06,1.08.15,2.19t.09,2.25q.06.84.06,1.74a12.294,12.294,0,0,1-.12,1.74,2.83,2.83,0,0,1-.63,1.68,2.747,2.747,0,0,1-1.59.72q-1.32.12-2.58.21a15.928,15.928,0,0,1-2.58-.03q-2.52-.18-2.82-2.94-.12-1.14-.21-2.25T147.18-6q-.24-9.54-.33-18.54t.21-18.06a3.853,3.853,0,0,1,.06-.69,5.037,5.037,0,0,1,.18-.69,2.039,2.039,0,0,1,1.8-1.56,31.04,31.04,0,0,1,8.4-.06q.96.12,1.89.21t1.95.27q7.62,1.56,11.34,6.51t2.82,12.33a15.675,15.675,0,0,1-3.12,7.68A10.831,10.831,0,0,1,165.42-14.58Zm-7.86-7.8q.3.06.51.12a1.425,1.425,0,0,0,.39.06,6.967,6.967,0,0,0,3.3-1.02,7.124,7.124,0,0,0,2.28-2.22,6.474,6.474,0,0,0,.99-2.91,5.733,5.733,0,0,0-.63-3.15,4.317,4.317,0,0,0-1.14-1.53,6.605,6.605,0,0,0-1.74-1.11,7.712,7.712,0,0,0-2.01-.57,4.849,4.849,0,0,0-1.95.09ZM26.34,46.26q-1.32.12-2.46.12a21.767,21.767,0,0,0-2.28.12,5.191,5.191,0,0,1-3.18-.42q-.84-.6-1.02-2.7a39.995,39.995,0,0,1,0-4.38q.06-2.1,2.46-2.34,1.5-.12,2.94-.18t2.88-.18h4.44q2.22,0,4.5.12a5,5,0,0,1,3.24.93,3.95,3.95,0,0,1,1.08,2.79,24.067,24.067,0,0,1-2.52,12.84,14.4,14.4,0,0,1-3.39,4.53,15.6,15.6,0,0,1-4.53,2.82,16.764,16.764,0,0,1-5.19,1.17,18.326,18.326,0,0,1-5.34-.42,19.517,19.517,0,0,1-4.98-1.89,15.805,15.805,0,0,1-4.17-3.27,24.207,24.207,0,0,1-3.69-5.49,29.416,29.416,0,0,1-2.31-6.48,31.9,31.9,0,0,1-.81-6.9,29.865,29.865,0,0,1,.72-6.84,24.56,24.56,0,0,1,2.31-6.24A19.462,19.462,0,0,1,9,18.84a18.883,18.883,0,0,1,6.18-3.96,19.866,19.866,0,0,1,6.57-1.35,17.193,17.193,0,0,1,6.3.99,16.828,16.828,0,0,1,5.37,3.09,15.78,15.78,0,0,1,3.81,4.92,15.4,15.4,0,0,1,1.59,6.51,2.859,2.859,0,0,1-.48,2.01,4.945,4.945,0,0,1-2.1,1.17,11.266,11.266,0,0,1-2.4.45,19.222,19.222,0,0,1-2.4.03,3.263,3.263,0,0,1-3.3-2.04q-.18-.48-.36-1.02t-.42-1.08a6.014,6.014,0,0,0-2.22-2.79,5.37,5.37,0,0,0-2.91-.87,7.087,7.087,0,0,0-3.09.75,8.544,8.544,0,0,0-2.76,2.13,11.156,11.156,0,0,0-2.43,4.83,20.54,20.54,0,0,0,.51,11.34,11.792,11.792,0,0,0,2.4,4.23,6.313,6.313,0,0,0,2.85,1.89,5.472,5.472,0,0,0,2.88.12,4.971,4.971,0,0,0,2.37-1.35A5.217,5.217,0,0,0,26.34,46.26Zm44.64-.84a8.316,8.316,0,0,1,.84.84,3.638,3.638,0,0,0,.84.72q1.2.84,2.43,1.56t2.55,1.44a9.437,9.437,0,0,0,1.44.69q.72.27,1.44.57a4.181,4.181,0,0,1,1.8,1.35,3.928,3.928,0,0,1,.3,2.25,7.927,7.927,0,0,1-1.5,4.32,4.151,4.151,0,0,1-4.2,1.8,12.7,12.7,0,0,1-3.72-.93,11.048,11.048,0,0,1-3.24-2.07q-1.38-1.26-2.64-2.61T64.8,52.68q-.42-.48-.78-.93a3.548,3.548,0,0,0-.96-.81q.06,1.08.15,2.19t.09,2.25q.06.84.06,1.74a12.3,12.3,0,0,1-.12,1.74,2.83,2.83,0,0,1-.63,1.68,2.747,2.747,0,0,1-1.59.72q-1.32.12-2.58.21a15.928,15.928,0,0,1-2.58-.03q-2.52-.18-2.82-2.94-.12-1.14-.21-2.25T52.74,54q-.24-9.54-.33-18.54t.21-18.06a3.852,3.852,0,0,1,.06-.69,5.038,5.038,0,0,1,.18-.69,2.039,2.039,0,0,1,1.8-1.56,31.041,31.041,0,0,1,8.4-.06q.96.12,1.89.21t1.95.27q7.62,1.56,11.34,6.51t2.82,12.33a15.675,15.675,0,0,1-3.12,7.68A10.831,10.831,0,0,1,70.98,45.42Zm-7.86-7.8q.3.06.51.12a1.425,1.425,0,0,0,.39.06,6.967,6.967,0,0,0,3.3-1.02,7.124,7.124,0,0,0,2.28-2.22,6.475,6.475,0,0,0,.99-2.91,5.733,5.733,0,0,0-.63-3.15,4.317,4.317,0,0,0-1.14-1.53,6.605,6.605,0,0,0-1.74-1.11,7.712,7.712,0,0,0-2.01-.57,4.85,4.85,0,0,0-1.95.09Zm55.32,15.66q-2.82.18-5.52.3l-5.46.24q-.12,1.02-.24,1.95t-.18,1.95a3.4,3.4,0,0,1-1.05,2.43,4.649,4.649,0,0,1-2.31,1.05,24.917,24.917,0,0,1-5.46,0,2.61,2.61,0,0,1-1.98-1.02,3.652,3.652,0,0,1-.66-2.22q-.06-4.32.09-9.57a97.778,97.778,0,0,1,.87-10.5,60.141,60.141,0,0,1,2.22-9.99,23.955,23.955,0,0,1,4.2-8.04,19.4,19.4,0,0,1,4.68-4.2,11.744,11.744,0,0,1,5.7-1.86,10.724,10.724,0,0,1,4.92.75,12.488,12.488,0,0,1,3.96,2.64,17.932,17.932,0,0,1,3.03,3.99,34.846,34.846,0,0,1,2.22,4.71,38.225,38.225,0,0,1,1.5,4.83,39.9,39.9,0,0,1,.81,4.38,89.94,89.94,0,0,1,.66,10.8q0,5.34-.24,10.8a11.936,11.936,0,0,1-.54,2.67,2.2,2.2,0,0,1-1.92,1.53q-1.44.12-2.91.18t-3.03.06a2.924,2.924,0,0,1-2.16-.75,4.327,4.327,0,0,1-.72-2.49q-.12-1.26-.24-2.37T118.44,53.28Zm-.72-10.32q0-1.44-.09-3.3t-.33-3.78a16.84,16.84,0,0,0-1.95-6.66q-1.35-2.1-2.61-1.8a2.75,2.75,0,0,0-1.5,1.14,12.349,12.349,0,0,0-1.35,2.37,22.671,22.671,0,0,0-1.11,3.12q-.48,1.71-.81,3.42t-.51,3.3a16.878,16.878,0,0,0-.12,2.73q2.76-.12,5.28-.27T117.72,42.96ZM154.86,55.2q-.06.84-.06,1.74t-.06,1.74a3.444,3.444,0,0,1-.57,1.68,2.018,2.018,0,0,1-1.71.84q-1.56.06-3.12.06t-3.12-.12a2.463,2.463,0,0,1-2.34-2.46,3.945,3.945,0,0,1-.12-.96V56.7q.18-9.6.36-18.06t.18-16.68a19.545,19.545,0,0,0-.12-2.16q-.12-1.08-.3-2.16a3.684,3.684,0,0,1,.24-2.43,3.123,3.123,0,0,1,2.16-1.05,40.859,40.859,0,0,1,5.34-.39,35.654,35.654,0,0,1,5.64.39,28.008,28.008,0,0,1,5.46,1.38,19.572,19.572,0,0,1,4.8,2.52,14.756,14.756,0,0,1,4.17,4.59,19.078,19.078,0,0,1,2.22,5.79,21.611,21.611,0,0,1-1.14,12.33,17.412,17.412,0,0,1-3.24,5.13,14.4,14.4,0,0,1-4.95,3.54,10.161,10.161,0,0,1-2.64.84,16.429,16.429,0,0,1-2.82.24h-4.26Zm.72-28.2q-.12,2.82-.18,5.52t.12,5.4q1.08,0,2.04.03t1.98-.03a4.56,4.56,0,0,0,2.55-.96,3.553,3.553,0,0,0,1.29-2.28,8.3,8.3,0,0,0,.24-2.43,5.184,5.184,0,0,0-.72-2.37A5.22,5.22,0,0,0,158.88,27a6.8,6.8,0,0,0-1.56-.06Q156.54,27,155.58,27Zm44.4,7.62a14.535,14.535,0,0,0,2.449.27q1.732.09,3.7.15t3.793,0q1.822-.06,2.778-.18.358-4.68.448-9.12t.389-8.94a2.7,2.7,0,0,1,1.14-2.25,6.139,6.139,0,0,1,2.55-.99,13.119,13.119,0,0,1,3.09-.12q1.62.12,2.76.3a2.132,2.132,0,0,1,1.35.78,3.629,3.629,0,0,1,.63,1.41,5.543,5.543,0,0,1,.12,1.62q-.06.81-.12,1.41-.12,4.26-.21,8.7t-.09,8.91q0,4.47.09,8.79t.27,8.28q.18,2.28.15,3.66a3.755,3.755,0,0,1-.6,2.16A3.373,3.373,0,0,1,222.7,60.6a23.784,23.784,0,0,1-4.031.54,9.194,9.194,0,0,1-3.225-.27,3.852,3.852,0,0,1-1.971-1.32,5.439,5.439,0,0,1-.985-2.34,18.407,18.407,0,0,1-.269-3.39q0-.96-.03-2.16t-.03-2.49V44.4a63.767,63.767,0,0,0-6.48-.03,55.239,55.239,0,0,1-6.54-.09q-.06.66-.09,1.29t-.03,1.17q-.06,2.34-.06,5.19V57a4.407,4.407,0,0,1-.93,2.88,3.465,3.465,0,0,1-2.55,1.26q-1.32.06-2.52.06a16.158,16.158,0,0,1-2.4-.18,4.244,4.244,0,0,1-2.7-1.11,3.33,3.33,0,0,1-.78-2.31q0-5.4.09-10.74t.18-10.38q.09-5.04.12-9.66t-.03-8.64q-.54-4.02,4.02-4.26,1.2-.12,2.46-.12t2.64.06a4.705,4.705,0,0,1,2.7.78,3.121,3.121,0,0,1,.78,2.46q0,4.14-.03,8.22t-.03,8.22Zm50.88,21a23.685,23.685,0,0,1-.18,2.94,2.423,2.423,0,0,1-2.22,2.34q-.54.06-1.35.12l-1.65.12q-.84.06-1.62.06a12.234,12.234,0,0,1-1.32-.06,4.174,4.174,0,0,1-3.06-1.23,4.77,4.77,0,0,1-.96-3.21V52.2q.06-3.96.06-8.22t.06-8.61q.06-4.35.15-8.61t.27-8.22V17.43q0-.57.06-1.17a2.687,2.687,0,0,1,.63-1.71,2.111,2.111,0,0,1,1.65-.63q.72,0,1.71-.03t2.01,0l1.98.06q.96.03,1.68.09a2.314,2.314,0,0,1,1.65.69,3.1,3.1,0,0,1,.51,1.77,10.012,10.012,0,0,1,.06,1.89q-.06.93-.06,1.95v23.4q0,4.08-.03,6.87T250.86,55.62Zm30.12,5.64a17.578,17.578,0,0,1-7.44-1.77,15.929,15.929,0,0,1-5.07-4.05,17.486,17.486,0,0,1-3.06-5.64A31.52,31.52,0,0,1,264,43.14a38.844,38.844,0,0,1-.09-6.99,59.163,59.163,0,0,1,.87-6.63,19.161,19.161,0,0,1,1.53-4.65,24.783,24.783,0,0,1,2.73-4.5,20.018,20.018,0,0,1,3.72-3.75,13.729,13.729,0,0,1,4.56-2.34,12.6,12.6,0,0,1,5.31-.42,15.407,15.407,0,0,1,5.01,1.56,14.47,14.47,0,0,1,4.08,3.09,12.366,12.366,0,0,1,2.58,4.23,6.8,6.8,0,0,1,.3,3.18,4.51,4.51,0,0,1-1.62,2.7,5.507,5.507,0,0,1-2.67,1.32,7.2,7.2,0,0,1-3.03-.18,2.664,2.664,0,0,1-2.1-1.98q-.12-.36-.21-.72a5.2,5.2,0,0,0-.27-.78,3.388,3.388,0,0,0-5.04-1.8,8.343,8.343,0,0,0-.81.66,3.273,3.273,0,0,0-.63.78,14.331,14.331,0,0,0-.9,1.26,9.046,9.046,0,0,0-.72,1.38,31.323,31.323,0,0,0-1.59,6.9,17.926,17.926,0,0,0,.63,7.02,16.409,16.409,0,0,0,2.1,5.52,4.038,4.038,0,0,0,6.54,1.08A15.722,15.722,0,0,0,288,44.34a3.392,3.392,0,0,1,1.32-1.38,2.782,2.782,0,0,1,1.92-.06,14.694,14.694,0,0,1,1.71.48q.87.3,1.71.66a2.837,2.837,0,0,1,1.38.96,2.955,2.955,0,0,1,.51,1.38,5.331,5.331,0,0,1-.06,1.59q-.15.81-.33,1.53a17.351,17.351,0,0,1-5.34,8.43,14.466,14.466,0,0,1-4.41,2.58A13.075,13.075,0,0,1,280.98,61.26Z" transform="translate(-1.248 46.413)" fill="#8054e7"/>
    <path id="Union_1" data-name="Union 1" d="M3072.572,595.522a36.989,36.989,0,0,1-5.934-11.948,100.094,100.094,0,0,1-3.64-17.126q-1.265-9.638-1.74-19.993t-.079-20.632q.4-10.275,1.265-18.958a139.387,139.387,0,0,1,2.215-14.976q1.346-6.292,2.77-8.681a7.659,7.659,0,0,1,4.035-3.107,15.676,15.676,0,0,1,5.934-.957,20.535,20.535,0,0,1,6.329,1.2,15.637,15.637,0,0,1,5.3,3.027,8.8,8.8,0,0,1,1.82,11.153q15.506-8.763,26.661-9.48t18.274,3.982a27.606,27.606,0,0,1,10.523,13.3,47.463,47.463,0,0,1,3.243,18.4,59.015,59.015,0,0,1-3.639,19.356,44.179,44.179,0,0,1-9.889,16.09,31.39,31.39,0,0,1-15.585,8.683q-9.176,2.15-20.885-2.788a112.853,112.853,0,0,1-.317,14.817,43.374,43.374,0,0,1-2.69,12.028,19.067,19.067,0,0,1-5.774,8.125,14.946,14.946,0,0,1-9.573,2.948A10.7,10.7,0,0,1,3072.572,595.522Zm33.544-75.275q-4.668.4-10.522,4.859.474,3.186.87,5.5t.87,4.7q.474,2.39.949,5.178t1.108,6.771q5.855,4.62,10.127,5.1a9.093,9.093,0,0,0,6.961-1.673,11.5,11.5,0,0,0,3.8-6.054,23.832,23.832,0,0,0,.792-8.284,23.439,23.439,0,0,0-2.136-8.284,14.54,14.54,0,0,0-4.984-6.054,11.131,11.131,0,0,0-6.41-1.815Q3106.845,520.185,3106.116,520.247Zm340.27,70.454c-4.694-5.177-7.309-12.21-7.6-20.409-3.857-3.008-6.418-7.584-7.343-13.245a2.966,2.966,0,0,1,.976-2.933,3,3,0,0,1,4.926,1.981c.859,5.264,3.538,9.162,7.544,10.971a12.686,12.686,0,0,0,16.051-4.9,13.518,13.518,0,0,0,1.8-7.015q0-.349-.016-.7c-7.778-1.849-13.625-10.649-13.564-17.281.067-7.42,7.5-9.342,16.655-9.261s16.549,2.133,16.482,9.555c-.063,6.545-5.907,15.089-13.562,16.964q-.015.364-.018.729a13.443,13.443,0,0,0,1.8,7.008,12.757,12.757,0,0,0,16.328,4.772q.242-.118.492-.253a3,3,0,0,1,1.608-1.05c2.188-1.694,4.36-4.592,5.167-9.537a3,3,0,0,1,5.9.953,20.564,20.564,0,0,1-7.355,13.242c-.295,8.2-2.91,15.227-7.609,20.41a26.028,26.028,0,0,1-19.322,8.563h-.016A26.027,26.027,0,0,1,3446.386,590.7Zm-228.009-15.172a14.077,14.077,0,0,1-6.409-2.629q-2.769-2.071-2.769-6.372-14.082,2.867-24.288.956t-16.851-6.611a29.2,29.2,0,0,1-9.731-11.073,25.291,25.291,0,0,1-2.769-12.426,27.686,27.686,0,0,1,5.063-14.5,32.236,32.236,0,0,1,12.262-10.833,29.917,29.917,0,0,1,16.93-2.867q9.415.956,19.225,9.24.158-2.072.158-5.417t-.317-6.692a45.548,45.548,0,0,0-.949-6.053,6.426,6.426,0,0,0-1.74-3.585q-1.109-.876-2.533.637t-3.322,6.611a4.617,4.617,0,0,1-2.373,2.788,9.133,9.133,0,0,1-3.8.956,19.794,19.794,0,0,1-4.272-.319,13.951,13.951,0,0,1-3.8-1.194q-5.222-2.391-7.2-5.417a9.3,9.3,0,0,1-1.661-6.133,11.094,11.094,0,0,1,2.689-5.974,22.283,22.283,0,0,1,6.092-5.018,33.469,33.469,0,0,1,8.228-3.345,28.462,28.462,0,0,1,9.257-.877,49.791,49.791,0,0,1,12.42,2.708,36.815,36.815,0,0,1,10.839,5.736,33.634,33.634,0,0,1,8.782,11.55,62.366,62.366,0,0,1,4.983,15.454,96.98,96.98,0,0,1,1.661,17.205,92.006,92.006,0,0,1-1.344,16.888,72.2,72.2,0,0,1-4.035,14.5,28.47,28.47,0,0,1-6.25,9.957q-1.424,1.434-4.984,2.071a21.591,21.591,0,0,1-3.82.34A22.273,22.273,0,0,1,3218.378,575.528Zm-20.649-41.74a9,9,0,0,0-4.035,3.266,15.97,15.97,0,0,0-2.531,5.416,15.023,15.023,0,0,0-.317,6.134,9.6,9.6,0,0,0,8.228,8.364q3.8.8,9.81-.8,0-4.14-.158-7.726t-.316-8.683q-2.848-4.3-5.617-5.576a7.466,7.466,0,0,0-3.116-.755A5.411,5.411,0,0,0,3197.729,533.788Zm323.848,35.347a13.513,13.513,0,0,1-10.836-10.861c-3.442-19.661-10.913-35.284-23.736-45.548a13.271,13.271,0,0,1-4.041-15.171c9.521-24.276,55.3-29.47,73.63,13.6,12.841,30.681-4.124,58.6-28.637,58.6A33.915,33.915,0,0,1,3521.577,569.135Zm-146.753-57.982c18.328-43.069,64.112-37.875,73.631-13.6a13.282,13.282,0,0,1-4.038,15.171c-12.823,10.264-20.3,25.887-23.739,45.548a13.512,13.512,0,0,1-10.837,10.861,33.909,33.909,0,0,1-6.379.617C3378.951,569.755,3361.984,541.835,3374.824,511.153Zm-47.824,58a19.7,19.7,0,0,1-7.6-3.106,18.374,18.374,0,0,1-5.617-5.815,15.271,15.271,0,0,1-2.136-7.727,16.42,16.42,0,0,1,2.768-8.921,58.759,58.759,0,0,0,6.329-14.02,74.891,74.891,0,0,0,2.69-12.745,31.6,31.6,0,0,0-.079-9.319q-.712-3.584-2.136-3.585-4.589,0-8.386,4.063a49.132,49.132,0,0,0-7.12,10.2,131.372,131.372,0,0,0-6.25,13.382q-2.927,7.248-5.775,13.462a68.577,68.577,0,0,1-5.774,10.435q-2.928,4.221-6.25,4.381-10.917.478-17.326-3.823a25.012,25.012,0,0,1-9.335-11.232,39.121,39.121,0,0,1-2.928-15.374,63.093,63.093,0,0,1,1.978-16.01,48.486,48.486,0,0,1,5.458-13.224q3.482-5.655,7.437-7.089,6.488-2.39,10.522-1.513a9.557,9.557,0,0,1,6.092,3.823,16.367,16.367,0,0,1,2.611,7.488,48.567,48.567,0,0,1,.157,9.638,96.214,96.214,0,0,1-1.344,10.2q-.949,5.1-1.741,8.921,8.071-21.507,16.772-33.376t17.088-16.25q8.386-4.381,15.9-2.389a27.387,27.387,0,0,1,13.291,8.284,44.994,44.994,0,0,1,9.1,15.772,62.278,62.278,0,0,1-.317,41.5,52.366,52.366,0,0,1-12.5,19.436,15.28,15.28,0,0,1-7.437,4.3,20.6,20.6,0,0,1-4.675.546A19.819,19.819,0,0,1,3327,569.156Z" transform="translate(-3061 -360)" fill="#041433" stroke="rgba(0,0,0,0)" stroke-miterlimit="10" stroke-width="1"/>
  </g>
</svg>
